<?xml version="1.0" encoding="UTF-8"?>
<svg version="1.1" xmlns="http://www.w3.org/2000/svg" width="432" height="66">
<path d="M0 0 C0.97426941 0.01886765 1.94853882 0.03773529 2.95233154 0.05717468 C4.97887048 0.09853782 7.00534457 0.14320878 9.03173828 0.19116211 C12.14473423 0.26252938 15.25773472 0.31626859 18.37109375 0.36914062 C20.35158548 0.41170423 22.33205566 0.45528557 24.3125 0.5 C25.7076181 0.52203239 25.7076181 0.52203239 27.13092041 0.54450989 C27.9865155 0.56760727 28.8421106 0.59070465 29.72363281 0.61450195 C30.47638489 0.63084183 31.22913696 0.6471817 32.00469971 0.66401672 C33.859375 0.94921875 33.859375 0.94921875 35.859375 2.94921875 C36.0546875 5.11328125 36.0546875 5.11328125 35.984375 7.57421875 C35.96632813 8.39148437 35.94828125 9.20875 35.9296875 10.05078125 C35.89488281 10.99050781 35.89488281 10.99050781 35.859375 11.94921875 C38.499375 11.94921875 41.139375 11.94921875 43.859375 11.94921875 C44.045 13.06296875 44.230625 14.17671875 44.421875 15.32421875 C44.89625 16.52046875 45.370625 17.71671875 45.859375 18.94921875 C49.32643038 20.18983092 49.32643038 20.18983092 52.859375 20.94921875 C54.046875 23.01171875 54.046875 23.01171875 54.859375 24.94921875 C56.18531605 25.31083904 57.51875957 25.64649914 58.859375 25.94921875 C59.83708693 28.88235455 59.99356511 30.83100869 59.984375 33.88671875 C59.98695313 34.74136719 59.98953125 35.59601562 59.9921875 36.4765625 C59.86867754 38.77602727 59.50358187 40.74562223 58.859375 42.94921875 C57.910625 43.03171875 56.961875 43.11421875 55.984375 43.19921875 C54.953125 43.44671875 53.921875 43.69421875 52.859375 43.94921875 C51.76771225 45.88252478 51.76771225 45.88252478 50.859375 47.94921875 C50.055 48.25859375 49.250625 48.56796875 48.421875 48.88671875 C45.63322441 49.73355197 45.63322441 49.73355197 44.421875 52.51171875 C42.859375 54.94921875 42.859375 54.94921875 39.671875 55.76171875 C38.2796875 55.85453125 38.2796875 55.85453125 36.859375 55.94921875 C36.55 56.91859375 36.240625 57.88796875 35.921875 58.88671875 C34.859375 61.94921875 34.859375 61.94921875 33.859375 62.94921875 C30.9742623 63.08128373 28.11219575 63.14627478 25.2253418 63.17041016 C24.29525268 63.18189055 23.36516356 63.19337095 22.40688992 63.20519924 C19.20749309 63.24267953 16.00808091 63.27208769 12.80859375 63.30078125 C10.45099854 63.32453962 8.09340374 63.34833966 5.73580933 63.37217712 C-1.61804015 63.44326523 -8.9719536 63.50170548 -16.32592916 63.55775309 C-18.44224249 63.57413451 -20.5585487 63.59124124 -22.67485428 63.60859299 C-92.30901512 64.17751984 -161.94359416 63.82775192 -231.578125 63.51171875 C-232.27774213 63.50854491 -232.97735927 63.50537108 -233.69817692 63.50210106 C-270.84573795 63.33336177 -307.99321453 63.14840354 -345.140625 62.94921875 C-345.470625 60.30921875 -345.800625 57.66921875 -346.140625 54.94921875 C-347.7803125 55.10390625 -347.7803125 55.10390625 -349.453125 55.26171875 C-350.67 55.15859375 -351.886875 55.05546875 -353.140625 54.94921875 C-354.703125 52.63671875 -354.703125 52.63671875 -356.140625 49.94921875 C-358.12450208 48.91760267 -360.12339156 47.91398257 -362.140625 46.94921875 C-362.635625 45.46421875 -362.635625 45.46421875 -363.140625 43.94921875 C-364.130625 43.61921875 -365.120625 43.28921875 -366.140625 42.94921875 C-367.130625 42.61921875 -368.120625 42.28921875 -369.140625 41.94921875 C-370.07805041 39.13694253 -370.27533344 37.36175031 -370.265625 34.44921875 C-370.26820313 33.67578125 -370.27078125 32.90234375 -370.2734375 32.10546875 C-370.140625 29.94921875 -370.140625 29.94921875 -369.140625 26.94921875 C-368.33625 26.47484375 -367.531875 26.00046875 -366.703125 25.51171875 C-364.01202633 24.20534789 -364.01202633 24.20534789 -363.203125 21.82421875 C-362.8525 21.20546875 -362.501875 20.58671875 -362.140625 19.94921875 C-359.015625 19.19921875 -359.015625 19.19921875 -356.140625 18.94921875 C-355.99625 17.97984375 -355.851875 17.01046875 -355.703125 16.01171875 C-355.140625 12.94921875 -355.140625 12.94921875 -354.140625 11.94921875 C-351.81244536 11.58161144 -349.4787865 11.24680294 -347.140625 10.94921875 C-346.99625 9.64984375 -346.851875 8.35046875 -346.703125 7.01171875 C-346.265625 3.07421875 -346.265625 3.07421875 -345.140625 1.94921875 C-343.78361562 1.79159323 -342.4188307 1.70014375 -341.05419254 1.63624573 C-339.73352816 1.57403414 -339.73352816 1.57403414 -338.38618368 1.51056576 C-337.41110894 1.47171041 -336.4360342 1.43285505 -335.43141174 1.39282227 C-333.8920599 1.32955041 -333.8920599 1.32955041 -332.32161003 1.26500034 C-319.73887079 0.7969689 -307.15670586 0.82102097 -294.56707442 0.84781218 C-290.96731584 0.85430569 -287.36755528 0.85476446 -283.76779175 0.85598755 C-277.55637462 0.85884759 -271.34496969 0.86524185 -265.13355827 0.87405396 C-256.13812595 0.88672071 -247.14269801 0.8927103 -238.14725823 0.89698732 C-223.52565885 0.90402273 -208.90406509 0.91480036 -194.2824707 0.92871094 C-192.97517014 0.92995266 -192.97517014 0.92995266 -191.64145947 0.93121946 C-185.45368122 0.93712127 -179.2659031 0.9431575 -173.078125 0.94921875 C-165.99389658 0.95615346 -158.90966809 0.96301873 -151.82543945 0.96972656 C-150.95226005 0.97055469 -150.07908065 0.97138282 -149.17944127 0.97223604 C-134.59470709 0.9859448 -120.00997282 0.99568999 -105.4252339 1.00263691 C-96.45580754 1.00710036 -87.48639786 1.01510327 -78.51697928 1.02778172 C-72.37412432 1.03623889 -66.23127316 1.04110542 -60.08841275 1.04320693 C-56.55241866 1.04454458 -53.01644613 1.04750509 -49.48045921 1.05496597 C-45.63519766 1.06304851 -41.78995736 1.06321777 -37.94468689 1.06274414 C-36.29597222 1.06813658 -36.29597222 1.06813658 -34.61395019 1.07363796 C-27.8118773 1.06471991 -21.08834336 0.72214215 -14.30849749 0.16919899 C-9.53096442 -0.16255769 -4.78471146 -0.10966715 0 0 Z " fill="#D9D9D9" transform="translate(371.140625,0.05078125)"/>
<path d="M0 0 C0.97901276 0.02361099 1.95802551 0.04722198 2.96670532 0.07154846 C6.0326883 0.14690375 9.09833182 0.23146218 12.1640625 0.31640625 C14.26821366 0.36975595 16.37238039 0.42249493 18.4765625 0.47460938 C23.5809359 0.60234062 28.68502781 0.73831416 33.7890625 0.87890625 C34.1190625 1.53890625 34.4490625 2.19890625 34.7890625 2.87890625 C-90.6109375 2.87890625 -216.0109375 2.87890625 -345.2109375 2.87890625 C-345.2109375 2.54890625 -345.2109375 2.21890625 -345.2109375 1.87890625 C-328.34409653 0.96842304 -311.52674915 0.74155848 -294.63738692 0.77749968 C-291.03762834 0.78399319 -287.43786778 0.78445196 -283.83810425 0.78567505 C-277.62668712 0.78853509 -271.41528219 0.79492935 -265.20387077 0.80374146 C-256.20843845 0.81640821 -247.21301051 0.8223978 -238.21757073 0.82667482 C-223.59597135 0.83371023 -208.97437759 0.84448786 -194.3527832 0.85839844 C-193.04548264 0.85964016 -193.04548264 0.85964016 -191.71177197 0.86090696 C-185.52399372 0.86680877 -179.3362156 0.872845 -173.1484375 0.87890625 C-166.06420908 0.88584096 -158.97998059 0.89270623 -151.89575195 0.89941406 C-151.02257255 0.90024219 -150.14939315 0.90107032 -149.24975377 0.90192354 C-134.66501959 0.9156323 -120.08028532 0.92537749 -105.4955464 0.93232441 C-96.52612004 0.93678786 -87.55671036 0.94479077 -78.58729178 0.95746922 C-72.44443682 0.96592639 -66.30158566 0.97079292 -60.15872525 0.97289443 C-56.62273116 0.97423208 -53.08675863 0.97719259 -49.55077171 0.98465347 C-45.70551016 0.99273601 -41.86026986 0.99290527 -38.01499939 0.99243164 C-36.36628472 0.99782408 -36.36628472 0.99782408 -34.68426269 1.00332546 C-27.88291612 0.99440837 -21.1608565 0.65107278 -14.38190943 0.09578705 C-9.57722956 -0.23283232 -4.81018279 -0.14258197 0 0 Z " fill="#F8F8F8" transform="translate(371.2109375,0.12109375)"/>
<path d="" fill="#FFFFFF" transform="translate(0,0)"/>
<path d="" fill="#FFFFFF" transform="translate(0,0)"/>
<path d="" fill="#FFFFFF" transform="translate(0,0)"/>
<path d="" fill="#FFFFFF" transform="translate(0,0)"/>
<path d="" fill="#FFFFFF" transform="translate(0,0)"/>
<path d="" fill="#FFFFFF" transform="translate(0,0)"/>
<path d="" fill="#FFFFFF" transform="translate(0,0)"/>
<path d="" fill="#FFFFFF" transform="translate(0,0)"/>
<path d="" fill="#FFFFFF" transform="translate(0,0)"/>
<path d="" fill="#FFFFFF" transform="translate(0,0)"/>
</svg>
