<svg width="625" height="465" viewBox="0 0 625 465" fill="none" xmlns="http://www.w3.org/2000/svg">
<path d="M93.6 145.6C94.2933 148.373 94.64 151.84 94.64 156C94.64 159.987 94.2933 163.453 93.6 166.4C94.2933 169.173 94.64 172.64 94.64 176.8C94.64 180.787 94.2933 184.253 93.6 187.2H83.2C83.8933 189.973 84.24 193.44 84.24 197.6C84.24 201.587 83.8933 205.053 83.2 208H20.8C20.1067 205.053 19.76 201.587 19.76 197.6C19.76 193.44 20.1067 189.973 20.8 187.2H10.4C9.70667 184.253 9.36 180.787 9.36 176.8C9.36 172.64 9.70667 169.173 10.4 166.4H31.2C31.8933 169.173 32.24 172.64 32.24 176.8C32.24 180.787 31.8933 184.253 31.2 187.2H72.8C72.1067 184.253 71.76 180.787 71.76 176.8C71.76 172.64 72.1067 169.173 72.8 166.4C72.1067 163.453 71.76 159.987 71.76 156C71.76 151.84 72.1067 148.373 72.8 145.6H20.8C20.1067 142.653 19.76 139.187 19.76 135.2C19.76 131.04 20.1067 127.573 20.8 124.8H10.4C9.70667 121.853 9.36 118.387 9.36 114.4C9.36 110.24 9.70667 106.773 10.4 104C9.70667 101.053 9.36 97.5867 9.36 93.6C9.36 89.44 9.70667 85.9733 10.4 83.2H20.8C20.1067 80.2533 19.76 76.7867 19.76 72.8C19.76 68.64 20.1067 65.1733 20.8 62.4H83.2C83.8933 65.1733 84.24 68.64 84.24 72.8C84.24 76.7867 83.8933 80.2533 83.2 83.2H93.6C94.2933 85.9733 94.64 89.44 94.64 93.6C94.64 97.5867 94.2933 101.053 93.6 104H72.8C72.1067 101.053 71.76 97.5867 71.76 93.6C71.76 89.44 72.1067 85.9733 72.8 83.2H31.2C31.8933 85.9733 32.24 89.44 32.24 93.6C32.24 97.5867 31.8933 101.053 31.2 104C31.8933 106.773 32.24 110.24 32.24 114.4C32.24 118.387 31.8933 121.853 31.2 124.8H83.2C83.8933 127.573 84.24 131.04 84.24 135.2C84.24 139.187 83.8933 142.653 83.2 145.6H93.6ZM198.742 72.8C198.742 76.7867 198.395 80.2533 197.702 83.2H166.502C167.195 85.9733 167.542 89.44 167.542 93.6C167.542 97.5867 167.195 101.053 166.502 104C167.195 106.773 167.542 110.24 167.542 114.4C167.542 118.387 167.195 121.853 166.502 124.8C167.195 127.573 167.542 131.04 167.542 135.2C167.542 139.187 167.195 142.653 166.502 145.6C167.195 148.373 167.542 151.84 167.542 156C167.542 159.987 167.195 163.453 166.502 166.4C167.195 169.173 167.542 172.64 167.542 176.8C167.542 180.787 167.195 184.253 166.502 187.2C167.195 189.973 167.542 193.44 167.542 197.6C167.542 201.587 167.195 205.053 166.502 208H145.702C145.008 205.053 144.662 201.587 144.662 197.6C144.662 193.44 145.008 189.973 145.702 187.2C145.008 184.253 144.662 180.787 144.662 176.8C144.662 172.64 145.008 169.173 145.702 166.4C145.008 163.453 144.662 159.987 144.662 156C144.662 151.84 145.008 148.373 145.702 145.6C145.008 142.653 144.662 139.187 144.662 135.2C144.662 131.04 145.008 127.573 145.702 124.8C145.008 121.853 144.662 118.387 144.662 114.4C144.662 110.24 145.008 106.773 145.702 104C145.008 101.053 144.662 97.5867 144.662 93.6C144.662 89.44 145.008 85.9733 145.702 83.2H114.502C113.808 80.2533 113.462 76.7867 113.462 72.8C113.462 68.64 113.808 65.1733 114.502 62.4H197.702C198.395 65.1733 198.742 68.64 198.742 72.8ZM302.843 176.8C302.843 180.787 302.496 184.253 301.803 187.2C302.496 189.973 302.843 193.44 302.843 197.6C302.843 201.587 302.496 205.053 301.803 208H281.003C280.31 205.053 279.963 201.587 279.963 197.6C279.963 193.44 280.31 189.973 281.003 187.2C280.31 184.253 279.963 180.787 279.963 176.8C279.963 172.64 280.31 169.173 281.003 166.4H239.403C240.096 169.173 240.443 172.64 240.443 176.8C240.443 180.787 240.096 184.253 239.403 187.2C240.096 189.973 240.443 193.44 240.443 197.6C240.443 201.587 240.096 205.053 239.403 208H218.603C217.91 205.053 217.563 201.587 217.563 197.6C217.563 193.44 217.91 189.973 218.603 187.2C217.91 184.253 217.563 180.787 217.563 176.8C217.563 172.64 217.91 169.173 218.603 166.4H226.403C225.71 163.453 225.363 159.987 225.363 156C225.363 151.84 225.71 148.373 226.403 145.6C225.71 142.653 225.363 139.187 225.363 135.2C225.363 131.04 225.71 127.573 226.403 124.8H231.603C230.91 121.853 230.563 118.387 230.563 114.4C230.563 110.24 230.91 106.773 231.603 104H239.403C238.71 101.053 238.363 97.5867 238.363 93.6C238.363 89.44 238.71 85.9733 239.403 83.2H244.603C243.91 80.2533 243.563 76.7867 243.563 72.8C243.563 68.64 243.91 65.1733 244.603 62.4H275.803C276.496 65.1733 276.843 68.64 276.843 72.8C276.843 76.7867 276.496 80.2533 275.803 83.2H281.003C281.696 85.9733 282.043 89.44 282.043 93.6C282.043 97.5867 281.696 101.053 281.003 104H288.803C289.496 106.773 289.843 110.24 289.843 114.4C289.843 118.387 289.496 121.853 288.803 124.8H294.003C294.696 127.573 295.043 131.04 295.043 135.2C295.043 139.187 294.696 142.653 294.003 145.6C294.696 148.373 295.043 151.84 295.043 156C295.043 159.987 294.696 163.453 294.003 166.4H301.803C302.496 169.173 302.843 172.64 302.843 176.8ZM273.203 145.6C272.51 142.653 272.163 139.187 272.163 135.2C272.163 131.04 272.51 127.573 273.203 124.8H268.003C267.31 121.853 266.963 118.387 266.963 114.4C266.963 110.24 267.31 106.773 268.003 104H252.403C253.096 106.773 253.443 110.24 253.443 114.4C253.443 118.387 253.096 121.853 252.403 124.8H247.203C247.896 127.573 248.243 131.04 248.243 135.2C248.243 139.187 247.896 142.653 247.203 145.6H273.203ZM406.945 72.8C406.945 76.7867 406.598 80.2533 405.905 83.2H374.705C375.398 85.9733 375.745 89.44 375.745 93.6C375.745 97.5867 375.398 101.053 374.705 104C375.398 106.773 375.745 110.24 375.745 114.4C375.745 118.387 375.398 121.853 374.705 124.8C375.398 127.573 375.745 131.04 375.745 135.2C375.745 139.187 375.398 142.653 374.705 145.6C375.398 148.373 375.745 151.84 375.745 156C375.745 159.987 375.398 163.453 374.705 166.4C375.398 169.173 375.745 172.64 375.745 176.8C375.745 180.787 375.398 184.253 374.705 187.2C375.398 189.973 375.745 193.44 375.745 197.6C375.745 201.587 375.398 205.053 374.705 208H353.905C353.211 205.053 352.865 201.587 352.865 197.6C352.865 193.44 353.211 189.973 353.905 187.2C353.211 184.253 352.865 180.787 352.865 176.8C352.865 172.64 353.211 169.173 353.905 166.4C353.211 163.453 352.865 159.987 352.865 156C352.865 151.84 353.211 148.373 353.905 145.6C353.211 142.653 352.865 139.187 352.865 135.2C352.865 131.04 353.211 127.573 353.905 124.8C353.211 121.853 352.865 118.387 352.865 114.4C352.865 110.24 353.211 106.773 353.905 104C353.211 101.053 352.865 97.5867 352.865 93.6C352.865 89.44 353.211 85.9733 353.905 83.2H322.705C322.011 80.2533 321.665 76.7867 321.665 72.8C321.665 68.64 322.011 65.1733 322.705 62.4H405.905C406.598 65.1733 406.945 68.64 406.945 72.8ZM510.006 83.2C510.7 85.9733 511.046 89.44 511.046 93.6C511.046 97.5867 510.7 101.053 510.006 104C510.7 106.773 511.046 110.24 511.046 114.4C511.046 118.387 510.7 121.853 510.006 124.8C510.7 127.573 511.046 131.04 511.046 135.2C511.046 139.187 510.7 142.653 510.006 145.6C510.7 148.373 511.046 151.84 511.046 156C511.046 159.987 510.7 163.453 510.006 166.4C510.7 169.173 511.046 172.64 511.046 176.8C511.046 180.787 510.7 184.253 510.006 187.2H499.606C500.3 189.973 500.646 193.44 500.646 197.6C500.646 201.587 500.3 205.053 499.606 208H437.206C436.513 205.053 436.166 201.587 436.166 197.6C436.166 193.44 436.513 189.973 437.206 187.2H426.806C426.113 184.253 425.766 180.787 425.766 176.8C425.766 172.64 426.113 169.173 426.806 166.4C426.113 163.453 425.766 159.987 425.766 156C425.766 151.84 426.113 148.373 426.806 145.6C426.113 142.653 425.766 139.187 425.766 135.2C425.766 131.04 426.113 127.573 426.806 124.8C426.113 121.853 425.766 118.387 425.766 114.4C425.766 110.24 426.113 106.773 426.806 104C426.113 101.053 425.766 97.5867 425.766 93.6C425.766 89.44 426.113 85.9733 426.806 83.2C426.113 80.2533 425.766 76.7867 425.766 72.8C425.766 68.64 426.113 65.1733 426.806 62.4H447.606C448.3 65.1733 448.646 68.64 448.646 72.8C448.646 76.7867 448.3 80.2533 447.606 83.2C448.3 85.9733 448.646 89.44 448.646 93.6C448.646 97.5867 448.3 101.053 447.606 104C448.3 106.773 448.646 110.24 448.646 114.4C448.646 118.387 448.3 121.853 447.606 124.8C448.3 127.573 448.646 131.04 448.646 135.2C448.646 139.187 448.3 142.653 447.606 145.6C448.3 148.373 448.646 151.84 448.646 156C448.646 159.987 448.3 163.453 447.606 166.4C448.3 169.173 448.646 172.64 448.646 176.8C448.646 180.787 448.3 184.253 447.606 187.2H489.206C488.513 184.253 488.166 180.787 488.166 176.8C488.166 172.64 488.513 169.173 489.206 166.4C488.513 163.453 488.166 159.987 488.166 156C488.166 151.84 488.513 148.373 489.206 145.6C488.513 142.653 488.166 139.187 488.166 135.2C488.166 131.04 488.513 127.573 489.206 124.8C488.513 121.853 488.166 118.387 488.166 114.4C488.166 110.24 488.513 106.773 489.206 104C488.513 101.053 488.166 97.5867 488.166 93.6C488.166 89.44 488.513 85.9733 489.206 83.2C488.513 80.2533 488.166 76.7867 488.166 72.8C488.166 68.64 488.513 65.1733 489.206 62.4H510.006C510.7 65.1733 511.046 68.64 511.046 72.8C511.046 76.7867 510.7 80.2533 510.006 83.2ZM614.108 145.6C614.801 148.373 615.148 151.84 615.148 156C615.148 159.987 614.801 163.453 614.108 166.4C614.801 169.173 615.148 172.64 615.148 176.8C615.148 180.787 614.801 184.253 614.108 187.2H603.708C604.401 189.973 604.748 193.44 604.748 197.6C604.748 201.587 604.401 205.053 603.708 208H541.308C540.614 205.053 540.268 201.587 540.268 197.6C540.268 193.44 540.614 189.973 541.308 187.2H530.908C530.214 184.253 529.868 180.787 529.868 176.8C529.868 172.64 530.214 169.173 530.908 166.4H551.708C552.401 169.173 552.748 172.64 552.748 176.8C552.748 180.787 552.401 184.253 551.708 187.2H593.308C592.614 184.253 592.268 180.787 592.268 176.8C592.268 172.64 592.614 169.173 593.308 166.4C592.614 163.453 592.268 159.987 592.268 156C592.268 151.84 592.614 148.373 593.308 145.6H541.308C540.614 142.653 540.268 139.187 540.268 135.2C540.268 131.04 540.614 127.573 541.308 124.8H530.908C530.214 121.853 529.868 118.387 529.868 114.4C529.868 110.24 530.214 106.773 530.908 104C530.214 101.053 529.868 97.5867 529.868 93.6C529.868 89.44 530.214 85.9733 530.908 83.2H541.308C540.614 80.2533 540.268 76.7867 540.268 72.8C540.268 68.64 540.614 65.1733 541.308 62.4H603.708C604.401 65.1733 604.748 68.64 604.748 72.8C604.748 76.7867 604.401 80.2533 603.708 83.2H614.108C614.801 85.9733 615.148 89.44 615.148 93.6C615.148 97.5867 614.801 101.053 614.108 104H593.308C592.614 101.053 592.268 97.5867 592.268 93.6C592.268 89.44 592.614 85.9733 593.308 83.2H551.708C552.401 85.9733 552.748 89.44 552.748 93.6C552.748 97.5867 552.401 101.053 551.708 104C552.401 106.773 552.748 110.24 552.748 114.4C552.748 118.387 552.401 121.853 551.708 124.8H603.708C604.401 127.573 604.748 131.04 604.748 135.2C604.748 139.187 604.401 142.653 603.708 145.6H614.108Z" fill="#4D2DB7" fill-opacity="0.44"/>
<path d="M156.6 371.4C157.293 374.173 157.64 377.64 157.64 381.8C157.64 385.787 157.293 389.253 156.6 392.2H146.2C146.893 394.973 147.24 398.44 147.24 402.6C147.24 406.587 146.893 410.053 146.2 413H94.2C93.5067 410.053 93.16 406.587 93.16 402.6C93.16 398.44 93.5067 394.973 94.2 392.2H83.8C83.1067 389.253 82.76 385.787 82.76 381.8C82.76 377.64 83.1067 374.173 83.8 371.4H73.4C72.7067 368.453 72.36 364.987 72.36 361C72.36 356.84 72.7067 353.373 73.4 350.6C72.7067 347.653 72.36 344.187 72.36 340.2C72.36 336.04 72.7067 332.573 73.4 329.8C72.7067 326.853 72.36 323.387 72.36 319.4C72.36 315.24 72.7067 311.773 73.4 309H83.8C83.1067 306.053 82.76 302.587 82.76 298.6C82.76 294.44 83.1067 290.973 83.8 288.2H94.2C93.5067 285.253 93.16 281.787 93.16 277.8C93.16 273.64 93.5067 270.173 94.2 267.4H146.2C146.893 270.173 147.24 273.64 147.24 277.8C147.24 281.787 146.893 285.253 146.2 288.2H156.6C157.293 290.973 157.64 294.44 157.64 298.6C157.64 302.587 157.293 306.053 156.6 309H135.8C135.107 306.053 134.76 302.587 134.76 298.6C134.76 294.44 135.107 290.973 135.8 288.2H104.6C105.293 290.973 105.64 294.44 105.64 298.6C105.64 302.587 105.293 306.053 104.6 309H94.2C94.8933 311.773 95.24 315.24 95.24 319.4C95.24 323.387 94.8933 326.853 94.2 329.8C94.8933 332.573 95.24 336.04 95.24 340.2C95.24 344.187 94.8933 347.653 94.2 350.6C94.8933 353.373 95.24 356.84 95.24 361C95.24 364.987 94.8933 368.453 94.2 371.4H104.6C105.293 374.173 105.64 377.64 105.64 381.8C105.64 385.787 105.293 389.253 104.6 392.2H135.8C135.107 389.253 134.76 385.787 134.76 381.8C134.76 377.64 135.107 374.173 135.8 371.4H156.6ZM260.702 329.8C261.395 332.573 261.742 336.04 261.742 340.2C261.742 344.187 261.395 347.653 260.702 350.6C261.395 353.373 261.742 356.84 261.742 361C261.742 364.987 261.395 368.453 260.702 371.4H252.902C253.595 374.173 253.942 377.64 253.942 381.8C253.942 385.787 253.595 389.253 252.902 392.2H239.902C240.595 394.973 240.942 398.44 240.942 402.6C240.942 406.587 240.595 410.053 239.902 413H198.302C197.608 410.053 197.262 406.587 197.262 402.6C197.262 398.44 197.608 394.973 198.302 392.2H185.302C184.608 389.253 184.262 385.787 184.262 381.8C184.262 377.64 184.608 374.173 185.302 371.4H177.502C176.808 368.453 176.462 364.987 176.462 361C176.462 356.84 176.808 353.373 177.502 350.6C176.808 347.653 176.462 344.187 176.462 340.2C176.462 336.04 176.808 332.573 177.502 329.8C176.808 326.853 176.462 323.387 176.462 319.4C176.462 315.24 176.808 311.773 177.502 309H185.302C184.608 306.053 184.262 302.587 184.262 298.6C184.262 294.44 184.608 290.973 185.302 288.2H198.302C197.608 285.253 197.262 281.787 197.262 277.8C197.262 273.64 197.608 270.173 198.302 267.4H239.902C240.595 270.173 240.942 273.64 240.942 277.8C240.942 281.787 240.595 285.253 239.902 288.2H252.902C253.595 290.973 253.942 294.44 253.942 298.6C253.942 302.587 253.595 306.053 252.902 309H260.702C261.395 311.773 261.742 315.24 261.742 319.4C261.742 323.387 261.395 326.853 260.702 329.8ZM239.902 371.4C239.208 368.453 238.862 364.987 238.862 361C238.862 356.84 239.208 353.373 239.902 350.6C239.208 347.653 238.862 344.187 238.862 340.2C238.862 336.04 239.208 332.573 239.902 329.8C239.208 326.853 238.862 323.387 238.862 319.4C238.862 315.24 239.208 311.773 239.902 309H232.102C231.408 306.053 231.062 302.587 231.062 298.6C231.062 294.44 231.408 290.973 232.102 288.2H206.102C206.795 290.973 207.142 294.44 207.142 298.6C207.142 302.587 206.795 306.053 206.102 309H198.302C198.995 311.773 199.342 315.24 199.342 319.4C199.342 323.387 198.995 326.853 198.302 329.8C198.995 332.573 199.342 336.04 199.342 340.2C199.342 344.187 198.995 347.653 198.302 350.6C198.995 353.373 199.342 356.84 199.342 361C199.342 364.987 198.995 368.453 198.302 371.4H206.102C206.795 374.173 207.142 377.64 207.142 381.8C207.142 385.787 206.795 389.253 206.102 392.2H232.102C231.408 389.253 231.062 385.787 231.062 381.8C231.062 377.64 231.408 374.173 232.102 371.4H239.902ZM364.803 329.8C365.496 332.573 365.843 336.04 365.843 340.2C365.843 344.187 365.496 347.653 364.803 350.6C365.496 353.373 365.843 356.84 365.843 361C365.843 364.987 365.496 368.453 364.803 371.4H354.403C355.096 374.173 355.443 377.64 355.443 381.8C355.443 385.787 355.096 389.253 354.403 392.2H344.003C344.696 394.973 345.043 398.44 345.043 402.6C345.043 406.587 344.696 410.053 344.003 413H281.603C280.91 410.053 280.563 406.587 280.563 402.6C280.563 398.44 280.91 394.973 281.603 392.2C280.91 389.253 280.563 385.787 280.563 381.8C280.563 377.64 280.91 374.173 281.603 371.4C280.91 368.453 280.563 364.987 280.563 361C280.563 356.84 280.91 353.373 281.603 350.6C280.91 347.653 280.563 344.187 280.563 340.2C280.563 336.04 280.91 332.573 281.603 329.8C280.91 326.853 280.563 323.387 280.563 319.4C280.563 315.24 280.91 311.773 281.603 309C280.91 306.053 280.563 302.587 280.563 298.6C280.563 294.44 280.91 290.973 281.603 288.2C280.91 285.253 280.563 281.787 280.563 277.8C280.563 273.64 280.91 270.173 281.603 267.4H344.003C344.696 270.173 345.043 273.64 345.043 277.8C345.043 281.787 344.696 285.253 344.003 288.2H354.403C355.096 290.973 355.443 294.44 355.443 298.6C355.443 302.587 355.096 306.053 354.403 309H364.803C365.496 311.773 365.843 315.24 365.843 319.4C365.843 323.387 365.496 326.853 364.803 329.8ZM344.003 371.4C343.31 368.453 342.963 364.987 342.963 361C342.963 356.84 343.31 353.373 344.003 350.6C343.31 347.653 342.963 344.187 342.963 340.2C342.963 336.04 343.31 332.573 344.003 329.8C343.31 326.853 342.963 323.387 342.963 319.4C342.963 315.24 343.31 311.773 344.003 309H333.603C332.91 306.053 332.563 302.587 332.563 298.6C332.563 294.44 332.91 290.973 333.603 288.2H302.403C303.096 290.973 303.443 294.44 303.443 298.6C303.443 302.587 303.096 306.053 302.403 309C303.096 311.773 303.443 315.24 303.443 319.4C303.443 323.387 303.096 326.853 302.403 329.8C303.096 332.573 303.443 336.04 303.443 340.2C303.443 344.187 303.096 347.653 302.403 350.6C303.096 353.373 303.443 356.84 303.443 361C303.443 364.987 303.096 368.453 302.403 371.4C303.096 374.173 303.443 377.64 303.443 381.8C303.443 385.787 303.096 389.253 302.403 392.2H333.603C332.91 389.253 332.563 385.787 332.563 381.8C332.563 377.64 332.91 374.173 333.603 371.4H344.003ZM416.905 350.6C417.598 353.373 417.945 356.84 417.945 361C417.945 364.987 417.598 368.453 416.905 371.4C417.598 374.173 417.945 377.64 417.945 381.8C417.945 385.787 417.598 389.253 416.905 392.2H458.505C459.198 394.973 459.545 398.44 459.545 402.6C459.545 406.587 459.198 410.053 458.505 413H396.105C395.411 410.053 395.065 406.587 395.065 402.6C395.065 398.44 395.411 394.973 396.105 392.2C395.411 389.253 395.065 385.787 395.065 381.8C395.065 377.64 395.411 374.173 396.105 371.4C395.411 368.453 395.065 364.987 395.065 361C395.065 356.84 395.411 353.373 396.105 350.6C395.411 347.653 395.065 344.187 395.065 340.2C395.065 336.04 395.411 332.573 396.105 329.8C395.411 326.853 395.065 323.387 395.065 319.4C395.065 315.24 395.411 311.773 396.105 309C395.411 306.053 395.065 302.587 395.065 298.6C395.065 294.44 395.411 290.973 396.105 288.2C395.411 285.253 395.065 281.787 395.065 277.8C395.065 273.64 395.411 270.173 396.105 267.4H458.505C459.198 270.173 459.545 273.64 459.545 277.8C459.545 281.787 459.198 285.253 458.505 288.2H416.905C417.598 290.973 417.945 294.44 417.945 298.6C417.945 302.587 417.598 306.053 416.905 309C417.598 311.773 417.945 315.24 417.945 319.4C417.945 323.387 417.598 326.853 416.905 329.8H458.505C459.198 332.573 459.545 336.04 459.545 340.2C459.545 344.187 459.198 347.653 458.505 350.6H416.905Z" fill="#4D2DB7" fill-opacity="0.44"/>
<path d="M562.606 392.2C563.3 394.973 563.646 398.44 563.646 402.6C563.646 406.587 563.3 410.053 562.606 413H500.206C499.513 410.053 499.166 406.587 499.166 402.6C499.166 398.44 499.513 394.973 500.206 392.2H521.006C520.313 389.253 519.966 385.787 519.966 381.8C519.966 377.64 520.313 374.173 521.006 371.4C520.313 368.453 519.966 364.987 519.966 361C519.966 356.84 520.313 353.373 521.006 350.6C520.313 347.653 519.966 344.187 519.966 340.2C519.966 336.04 520.313 332.573 521.006 329.8C520.313 326.853 519.966 323.387 519.966 319.4C519.966 315.24 520.313 311.773 521.006 309H505.406C504.713 306.053 504.366 302.587 504.366 298.6C504.366 294.44 504.713 290.973 505.406 288.2H521.006C520.313 285.253 519.966 281.787 519.966 277.8C519.966 273.64 520.313 270.173 521.006 267.4H541.806C542.5 270.173 542.846 273.64 542.846 277.8C542.846 281.787 542.5 285.253 541.806 288.2C542.5 290.973 542.846 294.44 542.846 298.6C542.846 302.587 542.5 306.053 541.806 309C542.5 311.773 542.846 315.24 542.846 319.4C542.846 323.387 542.5 326.853 541.806 329.8C542.5 332.573 542.846 336.04 542.846 340.2C542.846 344.187 542.5 347.653 541.806 350.6C542.5 353.373 542.846 356.84 542.846 361C542.846 364.987 542.5 368.453 541.806 371.4C542.5 374.173 542.846 377.64 542.846 381.8C542.846 385.787 542.5 389.253 541.806 392.2H562.606Z" fill="#E73427" fill-opacity="0.44"/>
</svg>
