<svg width="107" height="55" viewBox="0 0 107 55" fill="none" xmlns="http://www.w3.org/2000/svg">
<mask id="path-1-outside-1_126_69194" maskUnits="userSpaceOnUse" x="-7" y="0.10878" width="94" height="57" fill="black">
<rect fill="white" x="-7" y="0.10878" width="94" height="57"/>
<path d="M2.5 23.1088V20.8588H9.25V23.1088H2.5ZM0.25 20.8588V18.6088H2.5V20.8588H0.25ZM9.25 20.8588V16.3588H11.5V20.8588H9.25ZM2.5 16.3588V14.1088H9.25V16.3588H2.5ZM0.25 14.1088V9.60878H2.5V14.1088H0.25ZM9.25 11.8588V9.60878H11.5V11.8588H9.25ZM2.5 9.60878V7.35878H9.25V9.60878H2.5ZM18.25 23.1088V9.60878H13.75V7.35878H25V9.60878H20.5V23.1088H18.25ZM27.25 23.1088V11.8588H29.5V14.1088H36.25V11.8588H38.5V23.1088H36.25V16.3588H29.5V23.1088H27.25ZM29.5 11.8588V9.60878H31.75V11.8588H29.5ZM34 11.8588V9.60878H36.25V11.8588H34ZM31.75 9.60878V7.35878H34V9.60878H31.75ZM45.25 23.1088V9.60878H40.75V7.35878H52V9.60878H47.5V23.1088H45.25ZM56.5 23.1088V20.8588H63.25V23.1088H56.5ZM54.25 20.8588V7.35878H56.5V20.8588H54.25ZM63.25 20.8588V7.35878H65.5V20.8588H63.25ZM70 23.1088V20.8588H76.75V23.1088H70ZM67.75 20.8588V18.6088H70V20.8588H67.75ZM76.75 20.8588V16.3588H79V20.8588H76.75ZM70 16.3588V14.1088H76.75V16.3588H70ZM67.75 14.1088V9.60878H70V14.1088H67.75ZM76.75 11.8588V9.60878H79V11.8588H76.75ZM70 9.60878V7.35878H76.75V9.60878H70ZM3.6875 50.1088V46.6713H14V50.1088H3.6875ZM14 46.6713V43.2338H17.4375V46.6713H14ZM0.25 46.6713V29.4838H3.6875V46.6713H0.25ZM14 32.9213V29.4838H17.4375V32.9213H14ZM3.6875 29.4838V26.0463H14V29.4838H3.6875ZM24.3125 50.1088V46.6713H34.625V50.1088H24.3125ZM20.875 46.6713V29.4838H24.3125V46.6713H20.875ZM34.625 46.6713V29.4838H38.0625V46.6713H34.625ZM24.3125 29.4838V26.0463H34.625V29.4838H24.3125ZM55.25 46.6713V29.4838H58.6875V46.6713H55.25ZM41.5 50.1088V26.0463H55.25V29.4838H44.9375V46.6713H55.25V50.1088H41.5ZM62.125 50.1088V26.0463H79.3125V29.4838H65.5625V36.3588H75.875V39.7963H65.5625V46.6713H79.3125V50.1088H62.125Z"/>
</mask>
<path d="M2.5 23.1088V20.8588H9.25V23.1088H2.5ZM0.25 20.8588V18.6088H2.5V20.8588H0.25ZM9.25 20.8588V16.3588H11.5V20.8588H9.25ZM2.5 16.3588V14.1088H9.25V16.3588H2.5ZM0.25 14.1088V9.60878H2.5V14.1088H0.25ZM9.25 11.8588V9.60878H11.5V11.8588H9.25ZM2.5 9.60878V7.35878H9.25V9.60878H2.5ZM18.25 23.1088V9.60878H13.75V7.35878H25V9.60878H20.5V23.1088H18.25ZM27.25 23.1088V11.8588H29.5V14.1088H36.25V11.8588H38.5V23.1088H36.25V16.3588H29.5V23.1088H27.25ZM29.5 11.8588V9.60878H31.75V11.8588H29.5ZM34 11.8588V9.60878H36.25V11.8588H34ZM31.75 9.60878V7.35878H34V9.60878H31.75ZM45.25 23.1088V9.60878H40.75V7.35878H52V9.60878H47.5V23.1088H45.25ZM56.5 23.1088V20.8588H63.25V23.1088H56.5ZM54.25 20.8588V7.35878H56.5V20.8588H54.25ZM63.25 20.8588V7.35878H65.5V20.8588H63.25ZM70 23.1088V20.8588H76.75V23.1088H70ZM67.75 20.8588V18.6088H70V20.8588H67.75ZM76.75 20.8588V16.3588H79V20.8588H76.75ZM70 16.3588V14.1088H76.75V16.3588H70ZM67.75 14.1088V9.60878H70V14.1088H67.75ZM76.75 11.8588V9.60878H79V11.8588H76.75ZM70 9.60878V7.35878H76.75V9.60878H70ZM3.6875 50.1088V46.6713H14V50.1088H3.6875ZM14 46.6713V43.2338H17.4375V46.6713H14ZM0.25 46.6713V29.4838H3.6875V46.6713H0.25ZM14 32.9213V29.4838H17.4375V32.9213H14ZM3.6875 29.4838V26.0463H14V29.4838H3.6875ZM24.3125 50.1088V46.6713H34.625V50.1088H24.3125ZM20.875 46.6713V29.4838H24.3125V46.6713H20.875ZM34.625 46.6713V29.4838H38.0625V46.6713H34.625ZM24.3125 29.4838V26.0463H34.625V29.4838H24.3125ZM55.25 46.6713V29.4838H58.6875V46.6713H55.25ZM41.5 50.1088V26.0463H55.25V29.4838H44.9375V46.6713H55.25V50.1088H41.5ZM62.125 50.1088V26.0463H79.3125V29.4838H65.5625V36.3588H75.875V39.7963H65.5625V46.6713H79.3125V50.1088H62.125Z" fill="white"/>
<path d="M2.5 23.1088H-4.5C-4.5 26.9748 -1.36599 30.1088 2.5 30.1088V23.1088ZM2.5 20.8588V13.8588C-1.36599 13.8588 -4.5 16.9928 -4.5 20.8588H2.5ZM9.25 20.8588H16.25C16.25 16.9928 13.116 13.8588 9.25 13.8588V20.8588ZM9.25 23.1088V30.1088C13.116 30.1088 16.25 26.9748 16.25 23.1088H9.25ZM0.25 20.8588H-6.75C-6.75 24.7248 -3.61599 27.8588 0.25 27.8588V20.8588ZM0.25 18.6088V11.6088C-3.61599 11.6088 -6.75 14.7428 -6.75 18.6088H0.25ZM2.5 18.6088H9.5C9.5 14.7428 6.36599 11.6088 2.5 11.6088V18.6088ZM2.5 20.8588V27.8588C6.36599 27.8588 9.5 24.7248 9.5 20.8588H2.5ZM9.25 20.8588H2.25C2.25 24.7248 5.38401 27.8588 9.25 27.8588V20.8588ZM9.25 16.3588V9.35878C5.38401 9.35878 2.25 12.4928 2.25 16.3588H9.25ZM11.5 16.3588H18.5C18.5 12.4928 15.366 9.35878 11.5 9.35878V16.3588ZM11.5 20.8588V27.8588C15.366 27.8588 18.5 24.7248 18.5 20.8588H11.5ZM2.5 16.3588H-4.5C-4.5 20.2248 -1.36599 23.3588 2.5 23.3588V16.3588ZM2.5 14.1088V7.10878C-1.36599 7.10878 -4.5 10.2428 -4.5 14.1088H2.5ZM9.25 14.1088H16.25C16.25 10.2428 13.116 7.10878 9.25 7.10878V14.1088ZM9.25 16.3588V23.3588C13.116 23.3588 16.25 20.2248 16.25 16.3588H9.25ZM0.25 14.1088H-6.75C-6.75 17.9748 -3.61599 21.1088 0.25 21.1088V14.1088ZM0.25 9.60878V2.60878C-3.61599 2.60878 -6.75 5.74279 -6.75 9.60878H0.25ZM2.5 9.60878H9.5C9.5 5.74279 6.36599 2.60878 2.5 2.60878V9.60878ZM2.5 14.1088V21.1088C6.36599 21.1088 9.5 17.9748 9.5 14.1088H2.5ZM9.25 11.8588H2.25C2.25 15.7248 5.38401 18.8588 9.25 18.8588V11.8588ZM9.25 9.60878V2.60878C5.38401 2.60878 2.25 5.74279 2.25 9.60878H9.25ZM11.5 9.60878H18.5C18.5 5.74279 15.366 2.60878 11.5 2.60878V9.60878ZM11.5 11.8588V18.8588C15.366 18.8588 18.5 15.7248 18.5 11.8588H11.5ZM2.5 9.60878H-4.5C-4.5 13.4748 -1.36599 16.6088 2.5 16.6088V9.60878ZM2.5 7.35878V0.35878C-1.36599 0.35878 -4.5 3.49279 -4.5 7.35878H2.5ZM9.25 7.35878H16.25C16.25 3.49279 13.116 0.35878 9.25 0.35878V7.35878ZM9.25 9.60878V16.6088C13.116 16.6088 16.25 13.4748 16.25 9.60878H9.25ZM9.5 23.1088V20.8588H-4.5V23.1088H9.5ZM2.5 27.8588H9.25V13.8588H2.5V27.8588ZM2.25 20.8588V23.1088H16.25V20.8588H2.25ZM9.25 16.1088H2.5V30.1088H9.25V16.1088ZM7.25 20.8588V18.6088H-6.75V20.8588H7.25ZM0.25 25.6088H2.5V11.6088H0.25V25.6088ZM-4.5 18.6088V20.8588H9.5V18.6088H-4.5ZM2.5 13.8588H0.25V27.8588H2.5V13.8588ZM16.25 20.8588V16.3588H2.25V20.8588H16.25ZM9.25 23.3588H11.5V9.35878H9.25V23.3588ZM4.5 16.3588V20.8588H18.5V16.3588H4.5ZM11.5 13.8588H9.25V27.8588H11.5V13.8588ZM9.5 16.3588V14.1088H-4.5V16.3588H9.5ZM2.5 21.1088H9.25V7.10878H2.5V21.1088ZM2.25 14.1088V16.3588H16.25V14.1088H2.25ZM9.25 9.35878H2.5V23.3588H9.25V9.35878ZM7.25 14.1088V9.60878H-6.75V14.1088H7.25ZM0.25 16.6088H2.5V2.60878H0.25V16.6088ZM-4.5 9.60878V14.1088H9.5V9.60878H-4.5ZM2.5 7.10878H0.25V21.1088H2.5V7.10878ZM16.25 11.8588V9.60878H2.25V11.8588H16.25ZM9.25 16.6088H11.5V2.60878H9.25V16.6088ZM4.5 9.60878V11.8588H18.5V9.60878H4.5ZM11.5 4.85878H9.25V18.8588H11.5V4.85878ZM9.5 9.60878V7.35878H-4.5V9.60878H9.5ZM2.5 14.3588H9.25V0.35878H2.5V14.3588ZM2.25 7.35878V9.60878H16.25V7.35878H2.25ZM9.25 2.60878H2.5V16.6088H9.25V2.60878ZM18.25 23.1088H11.25C11.25 26.9748 14.384 30.1088 18.25 30.1088V23.1088ZM18.25 9.60878H25.25C25.25 5.74279 22.116 2.60878 18.25 2.60878V9.60878ZM13.75 9.60878H6.75C6.75 13.4748 9.88401 16.6088 13.75 16.6088V9.60878ZM13.75 7.35878V0.35878C9.88401 0.35878 6.75 3.49279 6.75 7.35878H13.75ZM25 7.35878H32C32 3.49279 28.866 0.35878 25 0.35878V7.35878ZM25 9.60878V16.6088C28.866 16.6088 32 13.4748 32 9.60878H25ZM20.5 9.60878V2.60878C16.634 2.60878 13.5 5.74279 13.5 9.60878H20.5ZM20.5 23.1088V30.1088C24.366 30.1088 27.5 26.9748 27.5 23.1088H20.5ZM25.25 23.1088V9.60878H11.25V23.1088H25.25ZM18.25 2.60878H13.75V16.6088H18.25V2.60878ZM20.75 9.60878V7.35878H6.75V9.60878H20.75ZM13.75 14.3588H25V0.35878H13.75V14.3588ZM18 7.35878V9.60878H32V7.35878H18ZM25 2.60878H20.5V16.6088H25V2.60878ZM13.5 9.60878V23.1088H27.5V9.60878H13.5ZM20.5 16.1088H18.25V30.1088H20.5V16.1088ZM27.25 23.1088H20.25C20.25 26.9748 23.384 30.1088 27.25 30.1088V23.1088ZM27.25 11.8588V4.85878C23.384 4.85878 20.25 7.99279 20.25 11.8588H27.25ZM29.5 11.8588H36.5C36.5 7.99279 33.366 4.85878 29.5 4.85878V11.8588ZM29.5 14.1088H22.5C22.5 17.9748 25.634 21.1088 29.5 21.1088V14.1088ZM36.25 14.1088V21.1088C40.116 21.1088 43.25 17.9748 43.25 14.1088H36.25ZM36.25 11.8588V4.85878C32.384 4.85878 29.25 7.99279 29.25 11.8588H36.25ZM38.5 11.8588H45.5C45.5 7.99279 42.366 4.85878 38.5 4.85878V11.8588ZM38.5 23.1088V30.1088C42.366 30.1088 45.5 26.9748 45.5 23.1088H38.5ZM36.25 23.1088H29.25C29.25 26.9748 32.384 30.1088 36.25 30.1088V23.1088ZM36.25 16.3588H43.25C43.25 12.4928 40.116 9.35878 36.25 9.35878V16.3588ZM29.5 16.3588V9.35878C25.634 9.35878 22.5 12.4928 22.5 16.3588H29.5ZM29.5 23.1088V30.1088C33.366 30.1088 36.5 26.9748 36.5 23.1088H29.5ZM29.5 11.8588H22.5C22.5 15.7248 25.634 18.8588 29.5 18.8588V11.8588ZM29.5 9.60878V2.60878C25.634 2.60878 22.5 5.74279 22.5 9.60878H29.5ZM31.75 9.60878H38.75C38.75 5.74279 35.616 2.60878 31.75 2.60878V9.60878ZM31.75 11.8588V18.8588C35.616 18.8588 38.75 15.7248 38.75 11.8588H31.75ZM34 11.8588H27C27 15.7248 30.134 18.8588 34 18.8588V11.8588ZM34 9.60878V2.60878C30.134 2.60878 27 5.74279 27 9.60878H34ZM36.25 9.60878H43.25C43.25 5.74279 40.116 2.60878 36.25 2.60878V9.60878ZM36.25 11.8588V18.8588C40.116 18.8588 43.25 15.7248 43.25 11.8588H36.25ZM31.75 9.60878H24.75C24.75 13.4748 27.884 16.6088 31.75 16.6088V9.60878ZM31.75 7.35878V0.35878C27.884 0.35878 24.75 3.49279 24.75 7.35878H31.75ZM34 7.35878H41C41 3.49279 37.866 0.35878 34 0.35878V7.35878ZM34 9.60878V16.6088C37.866 16.6088 41 13.4748 41 9.60878H34ZM34.25 23.1088V11.8588H20.25V23.1088H34.25ZM27.25 18.8588H29.5V4.85878H27.25V18.8588ZM22.5 11.8588V14.1088H36.5V11.8588H22.5ZM29.5 21.1088H36.25V7.10878H29.5V21.1088ZM43.25 14.1088V11.8588H29.25V14.1088H43.25ZM36.25 18.8588H38.5V4.85878H36.25V18.8588ZM31.5 11.8588V23.1088H45.5V11.8588H31.5ZM38.5 16.1088H36.25V30.1088H38.5V16.1088ZM43.25 23.1088V16.3588H29.25V23.1088H43.25ZM36.25 9.35878H29.5V23.3588H36.25V9.35878ZM22.5 16.3588V23.1088H36.5V16.3588H22.5ZM29.5 16.1088H27.25V30.1088H29.5V16.1088ZM36.5 11.8588V9.60878H22.5V11.8588H36.5ZM29.5 16.6088H31.75V2.60878H29.5V16.6088ZM24.75 9.60878V11.8588H38.75V9.60878H24.75ZM31.75 4.85878H29.5V18.8588H31.75V4.85878ZM41 11.8588V9.60878H27V11.8588H41ZM34 16.6088H36.25V2.60878H34V16.6088ZM29.25 9.60878V11.8588H43.25V9.60878H29.25ZM36.25 4.85878H34V18.8588H36.25V4.85878ZM38.75 9.60878V7.35878H24.75V9.60878H38.75ZM31.75 14.3588H34V0.35878H31.75V14.3588ZM27 7.35878V9.60878H41V7.35878H27ZM34 2.60878H31.75V16.6088H34V2.60878ZM45.25 23.1088H38.25C38.25 26.9748 41.384 30.1088 45.25 30.1088V23.1088ZM45.25 9.60878H52.25C52.25 5.74279 49.116 2.60878 45.25 2.60878V9.60878ZM40.75 9.60878H33.75C33.75 13.4748 36.884 16.6088 40.75 16.6088V9.60878ZM40.75 7.35878V0.35878C36.884 0.35878 33.75 3.49279 33.75 7.35878H40.75ZM52 7.35878H59C59 3.49279 55.866 0.35878 52 0.35878V7.35878ZM52 9.60878V16.6088C55.866 16.6088 59 13.4748 59 9.60878H52ZM47.5 9.60878V2.60878C43.634 2.60878 40.5 5.74279 40.5 9.60878H47.5ZM47.5 23.1088V30.1088C51.366 30.1088 54.5 26.9748 54.5 23.1088H47.5ZM52.25 23.1088V9.60878H38.25V23.1088H52.25ZM45.25 2.60878H40.75V16.6088H45.25V2.60878ZM47.75 9.60878V7.35878H33.75V9.60878H47.75ZM40.75 14.3588H52V0.35878H40.75V14.3588ZM45 7.35878V9.60878H59V7.35878H45ZM52 2.60878H47.5V16.6088H52V2.60878ZM40.5 9.60878V23.1088H54.5V9.60878H40.5ZM47.5 16.1088H45.25V30.1088H47.5V16.1088ZM56.5 23.1088H49.5C49.5 26.9748 52.634 30.1088 56.5 30.1088V23.1088ZM56.5 20.8588V13.8588C52.634 13.8588 49.5 16.9928 49.5 20.8588H56.5ZM63.25 20.8588H70.25C70.25 16.9928 67.116 13.8588 63.25 13.8588V20.8588ZM63.25 23.1088V30.1088C67.116 30.1088 70.25 26.9748 70.25 23.1088H63.25ZM54.25 20.8588H47.25C47.25 24.7248 50.384 27.8588 54.25 27.8588V20.8588ZM54.25 7.35878V0.35878C50.384 0.35878 47.25 3.49279 47.25 7.35878H54.25ZM56.5 7.35878H63.5C63.5 3.49279 60.366 0.35878 56.5 0.35878V7.35878ZM56.5 20.8588V27.8588C60.366 27.8588 63.5 24.7248 63.5 20.8588H56.5ZM63.25 20.8588H56.25C56.25 24.7248 59.384 27.8588 63.25 27.8588V20.8588ZM63.25 7.35878V0.35878C59.384 0.35878 56.25 3.49279 56.25 7.35878H63.25ZM65.5 7.35878H72.5C72.5 3.49279 69.366 0.35878 65.5 0.35878V7.35878ZM65.5 20.8588V27.8588C69.366 27.8588 72.5 24.7248 72.5 20.8588H65.5ZM63.5 23.1088V20.8588H49.5V23.1088H63.5ZM56.5 27.8588H63.25V13.8588H56.5V27.8588ZM56.25 20.8588V23.1088H70.25V20.8588H56.25ZM63.25 16.1088H56.5V30.1088H63.25V16.1088ZM61.25 20.8588V7.35878H47.25V20.8588H61.25ZM54.25 14.3588H56.5V0.35878H54.25V14.3588ZM49.5 7.35878V20.8588H63.5V7.35878H49.5ZM56.5 13.8588H54.25V27.8588H56.5V13.8588ZM70.25 20.8588V7.35878H56.25V20.8588H70.25ZM63.25 14.3588H65.5V0.35878H63.25V14.3588ZM58.5 7.35878V20.8588H72.5V7.35878H58.5ZM65.5 13.8588H63.25V27.8588H65.5V13.8588ZM70 23.1088H63C63 26.9748 66.134 30.1088 70 30.1088V23.1088ZM70 20.8588V13.8588C66.134 13.8588 63 16.9928 63 20.8588H70ZM76.75 20.8588H83.75C83.75 16.9928 80.616 13.8588 76.75 13.8588V20.8588ZM76.75 23.1088V30.1088C80.616 30.1088 83.75 26.9748 83.75 23.1088H76.75ZM67.75 20.8588H60.75C60.75 24.7248 63.884 27.8588 67.75 27.8588V20.8588ZM67.75 18.6088V11.6088C63.884 11.6088 60.75 14.7428 60.75 18.6088H67.75ZM70 18.6088H77C77 14.7428 73.866 11.6088 70 11.6088V18.6088ZM70 20.8588V27.8588C73.866 27.8588 77 24.7248 77 20.8588H70ZM76.75 20.8588H69.75C69.75 24.7248 72.884 27.8588 76.75 27.8588V20.8588ZM76.75 16.3588V9.35878C72.884 9.35878 69.75 12.4928 69.75 16.3588H76.75ZM79 16.3588H86C86 12.4928 82.866 9.35878 79 9.35878V16.3588ZM79 20.8588V27.8588C82.866 27.8588 86 24.7248 86 20.8588H79ZM70 16.3588H63C63 20.2248 66.134 23.3588 70 23.3588V16.3588ZM70 14.1088V7.10878C66.134 7.10878 63 10.2428 63 14.1088H70ZM76.75 14.1088H83.75C83.75 10.2428 80.616 7.10878 76.75 7.10878V14.1088ZM76.75 16.3588V23.3588C80.616 23.3588 83.75 20.2248 83.75 16.3588H76.75ZM67.75 14.1088H60.75C60.75 17.9748 63.884 21.1088 67.75 21.1088V14.1088ZM67.75 9.60878V2.60878C63.884 2.60878 60.75 5.74279 60.75 9.60878H67.75ZM70 9.60878H77C77 5.74279 73.866 2.60878 70 2.60878V9.60878ZM70 14.1088V21.1088C73.866 21.1088 77 17.9748 77 14.1088H70ZM76.75 11.8588H69.75C69.75 15.7248 72.884 18.8588 76.75 18.8588V11.8588ZM76.75 9.60878V2.60878C72.884 2.60878 69.75 5.74279 69.75 9.60878H76.75ZM79 9.60878H86C86 5.74279 82.866 2.60878 79 2.60878V9.60878ZM79 11.8588V18.8588C82.866 18.8588 86 15.7248 86 11.8588H79ZM70 9.60878H63C63 13.4748 66.134 16.6088 70 16.6088V9.60878ZM70 7.35878V0.35878C66.134 0.35878 63 3.49279 63 7.35878H70ZM76.75 7.35878H83.75C83.75 3.49279 80.616 0.35878 76.75 0.35878V7.35878ZM76.75 9.60878V16.6088C80.616 16.6088 83.75 13.4748 83.75 9.60878H76.75ZM77 23.1088V20.8588H63V23.1088H77ZM70 27.8588H76.75V13.8588H70V27.8588ZM69.75 20.8588V23.1088H83.75V20.8588H69.75ZM76.75 16.1088H70V30.1088H76.75V16.1088ZM74.75 20.8588V18.6088H60.75V20.8588H74.75ZM67.75 25.6088H70V11.6088H67.75V25.6088ZM63 18.6088V20.8588H77V18.6088H63ZM70 13.8588H67.75V27.8588H70V13.8588ZM83.75 20.8588V16.3588H69.75V20.8588H83.75ZM76.75 23.3588H79V9.35878H76.75V23.3588ZM72 16.3588V20.8588H86V16.3588H72ZM79 13.8588H76.75V27.8588H79V13.8588ZM77 16.3588V14.1088H63V16.3588H77ZM70 21.1088H76.75V7.10878H70V21.1088ZM69.75 14.1088V16.3588H83.75V14.1088H69.75ZM76.75 9.35878H70V23.3588H76.75V9.35878ZM74.75 14.1088V9.60878H60.75V14.1088H74.75ZM67.75 16.6088H70V2.60878H67.75V16.6088ZM63 9.60878V14.1088H77V9.60878H63ZM70 7.10878H67.75V21.1088H70V7.10878ZM83.75 11.8588V9.60878H69.75V11.8588H83.75ZM76.75 16.6088H79V2.60878H76.75V16.6088ZM72 9.60878V11.8588H86V9.60878H72ZM79 4.85878H76.75V18.8588H79V4.85878ZM77 9.60878V7.35878H63V9.60878H77ZM70 14.3588H76.75V0.35878H70V14.3588ZM69.75 7.35878V9.60878H83.75V7.35878H69.75ZM76.75 2.60878H70V16.6088H76.75V2.60878ZM3.6875 50.1088H-3.3125C-3.3125 53.9748 -0.178493 57.1088 3.6875 57.1088V50.1088ZM3.6875 46.6713V39.6713C-0.178493 39.6713 -3.3125 42.8053 -3.3125 46.6713H3.6875ZM14 46.6713H21C21 42.8053 17.866 39.6713 14 39.6713V46.6713ZM14 50.1088V57.1088C17.866 57.1088 21 53.9748 21 50.1088H14ZM14 46.6713H7C7 50.5373 10.134 53.6713 14 53.6713V46.6713ZM14 43.2338V36.2338C10.134 36.2338 7 39.3678 7 43.2338H14ZM17.4375 43.2338H24.4375C24.4375 39.3678 21.3035 36.2338 17.4375 36.2338V43.2338ZM17.4375 46.6713V53.6713C21.3035 53.6713 24.4375 50.5373 24.4375 46.6713H17.4375ZM0.25 46.6713H-6.75C-6.75 50.5373 -3.61599 53.6713 0.25 53.6713V46.6713ZM0.25 29.4838V22.4838C-3.61599 22.4838 -6.75 25.6178 -6.75 29.4838H0.25ZM3.6875 29.4838H10.6875C10.6875 25.6178 7.55349 22.4838 3.6875 22.4838V29.4838ZM3.6875 46.6713V53.6713C7.55349 53.6713 10.6875 50.5373 10.6875 46.6713H3.6875ZM14 32.9213H7C7 36.7873 10.134 39.9213 14 39.9213V32.9213ZM14 29.4838V22.4838C10.134 22.4838 7 25.6178 7 29.4838H14ZM17.4375 29.4838H24.4375C24.4375 25.6178 21.3035 22.4838 17.4375 22.4838V29.4838ZM17.4375 32.9213V39.9213C21.3035 39.9213 24.4375 36.7873 24.4375 32.9213H17.4375ZM3.6875 29.4838H-3.3125C-3.3125 33.3498 -0.178493 36.4838 3.6875 36.4838V29.4838ZM3.6875 26.0463V19.0463C-0.178493 19.0463 -3.3125 22.1803 -3.3125 26.0463H3.6875ZM14 26.0463H21C21 22.1803 17.866 19.0463 14 19.0463V26.0463ZM14 29.4838V36.4838C17.866 36.4838 21 33.3498 21 29.4838H14ZM10.6875 50.1088V46.6713H-3.3125V50.1088H10.6875ZM3.6875 53.6713H14V39.6713H3.6875V53.6713ZM7 46.6713V50.1088H21V46.6713H7ZM14 43.1088H3.6875V57.1088H14V43.1088ZM21 46.6713V43.2338H7V46.6713H21ZM14 50.2338H17.4375V36.2338H14V50.2338ZM10.4375 43.2338V46.6713H24.4375V43.2338H10.4375ZM17.4375 39.6713H14V53.6713H17.4375V39.6713ZM7.25 46.6713V29.4838H-6.75V46.6713H7.25ZM0.25 36.4838H3.6875V22.4838H0.25V36.4838ZM-3.3125 29.4838V46.6713H10.6875V29.4838H-3.3125ZM3.6875 39.6713H0.25V53.6713H3.6875V39.6713ZM21 32.9213V29.4838H7V32.9213H21ZM14 36.4838H17.4375V22.4838H14V36.4838ZM10.4375 29.4838V32.9213H24.4375V29.4838H10.4375ZM17.4375 25.9213H14V39.9213H17.4375V25.9213ZM10.6875 29.4838V26.0463H-3.3125V29.4838H10.6875ZM3.6875 33.0463H14V19.0463H3.6875V33.0463ZM7 26.0463V29.4838H21V26.0463H7ZM14 22.4838H3.6875V36.4838H14V22.4838ZM24.3125 50.1088H17.3125C17.3125 53.9748 20.4465 57.1088 24.3125 57.1088V50.1088ZM24.3125 46.6713V39.6713C20.4465 39.6713 17.3125 42.8053 17.3125 46.6713H24.3125ZM34.625 46.6713H41.625C41.625 42.8053 38.491 39.6713 34.625 39.6713V46.6713ZM34.625 50.1088V57.1088C38.491 57.1088 41.625 53.9748 41.625 50.1088H34.625ZM20.875 46.6713H13.875C13.875 50.5373 17.009 53.6713 20.875 53.6713V46.6713ZM20.875 29.4838V22.4838C17.009 22.4838 13.875 25.6178 13.875 29.4838H20.875ZM24.3125 29.4838H31.3125C31.3125 25.6178 28.1785 22.4838 24.3125 22.4838V29.4838ZM24.3125 46.6713V53.6713C28.1785 53.6713 31.3125 50.5373 31.3125 46.6713H24.3125ZM34.625 46.6713H27.625C27.625 50.5373 30.759 53.6713 34.625 53.6713V46.6713ZM34.625 29.4838V22.4838C30.759 22.4838 27.625 25.6178 27.625 29.4838H34.625ZM38.0625 29.4838H45.0625C45.0625 25.6178 41.9285 22.4838 38.0625 22.4838V29.4838ZM38.0625 46.6713V53.6713C41.9285 53.6713 45.0625 50.5373 45.0625 46.6713H38.0625ZM24.3125 29.4838H17.3125C17.3125 33.3498 20.4465 36.4838 24.3125 36.4838V29.4838ZM24.3125 26.0463V19.0463C20.4465 19.0463 17.3125 22.1803 17.3125 26.0463H24.3125ZM34.625 26.0463H41.625C41.625 22.1803 38.491 19.0463 34.625 19.0463V26.0463ZM34.625 29.4838V36.4838C38.491 36.4838 41.625 33.3498 41.625 29.4838H34.625ZM31.3125 50.1088V46.6713H17.3125V50.1088H31.3125ZM24.3125 53.6713H34.625V39.6713H24.3125V53.6713ZM27.625 46.6713V50.1088H41.625V46.6713H27.625ZM34.625 43.1088H24.3125V57.1088H34.625V43.1088ZM27.875 46.6713V29.4838H13.875V46.6713H27.875ZM20.875 36.4838H24.3125V22.4838H20.875V36.4838ZM17.3125 29.4838V46.6713H31.3125V29.4838H17.3125ZM24.3125 39.6713H20.875V53.6713H24.3125V39.6713ZM41.625 46.6713V29.4838H27.625V46.6713H41.625ZM34.625 36.4838H38.0625V22.4838H34.625V36.4838ZM31.0625 29.4838V46.6713H45.0625V29.4838H31.0625ZM38.0625 39.6713H34.625V53.6713H38.0625V39.6713ZM31.3125 29.4838V26.0463H17.3125V29.4838H31.3125ZM24.3125 33.0463H34.625V19.0463H24.3125V33.0463ZM27.625 26.0463V29.4838H41.625V26.0463H27.625ZM34.625 22.4838H24.3125V36.4838H34.625V22.4838ZM55.25 46.6713H48.25C48.25 50.5373 51.384 53.6713 55.25 53.6713V46.6713ZM55.25 29.4838V22.4838C51.384 22.4838 48.25 25.6178 48.25 29.4838H55.25ZM58.6875 29.4838H65.6875C65.6875 25.6178 62.5535 22.4838 58.6875 22.4838V29.4838ZM58.6875 46.6713V53.6713C62.5535 53.6713 65.6875 50.5373 65.6875 46.6713H58.6875ZM41.5 50.1088H34.5C34.5 53.9748 37.634 57.1088 41.5 57.1088V50.1088ZM41.5 26.0463V19.0463C37.634 19.0463 34.5 22.1803 34.5 26.0463H41.5ZM55.25 26.0463H62.25C62.25 22.1803 59.116 19.0463 55.25 19.0463V26.0463ZM55.25 29.4838V36.4838C59.116 36.4838 62.25 33.3498 62.25 29.4838H55.25ZM44.9375 29.4838V22.4838C41.0715 22.4838 37.9375 25.6178 37.9375 29.4838H44.9375ZM44.9375 46.6713H37.9375C37.9375 50.5373 41.0715 53.6713 44.9375 53.6713V46.6713ZM55.25 46.6713H62.25C62.25 42.8053 59.116 39.6713 55.25 39.6713V46.6713ZM55.25 50.1088V57.1088C59.116 57.1088 62.25 53.9748 62.25 50.1088H55.25ZM62.25 46.6713V29.4838H48.25V46.6713H62.25ZM55.25 36.4838H58.6875V22.4838H55.25V36.4838ZM51.6875 29.4838V46.6713H65.6875V29.4838H51.6875ZM58.6875 39.6713H55.25V53.6713H58.6875V39.6713ZM48.5 50.1088V26.0463H34.5V50.1088H48.5ZM41.5 33.0463H55.25V19.0463H41.5V33.0463ZM48.25 26.0463V29.4838H62.25V26.0463H48.25ZM55.25 22.4838H44.9375V36.4838H55.25V22.4838ZM37.9375 29.4838V46.6713H51.9375V29.4838H37.9375ZM44.9375 53.6713H55.25V39.6713H44.9375V53.6713ZM48.25 46.6713V50.1088H62.25V46.6713H48.25ZM55.25 43.1088H41.5V57.1088H55.25V43.1088ZM62.125 50.1088H55.125C55.125 53.9748 58.259 57.1088 62.125 57.1088V50.1088ZM62.125 26.0463V19.0463C58.259 19.0463 55.125 22.1803 55.125 26.0463H62.125ZM79.3125 26.0463H86.3125C86.3125 22.1803 83.1785 19.0463 79.3125 19.0463V26.0463ZM79.3125 29.4838V36.4838C83.1785 36.4838 86.3125 33.3498 86.3125 29.4838H79.3125ZM65.5625 29.4838V22.4838C61.6965 22.4838 58.5625 25.6178 58.5625 29.4838H65.5625ZM65.5625 36.3588H58.5625C58.5625 40.2248 61.6965 43.3588 65.5625 43.3588V36.3588ZM75.875 36.3588H82.875C82.875 32.4928 79.741 29.3588 75.875 29.3588V36.3588ZM75.875 39.7963V46.7963C79.741 46.7963 82.875 43.6623 82.875 39.7963H75.875ZM65.5625 39.7963V32.7963C61.6965 32.7963 58.5625 35.9303 58.5625 39.7963H65.5625ZM65.5625 46.6713H58.5625C58.5625 50.5373 61.6965 53.6713 65.5625 53.6713V46.6713ZM79.3125 46.6713H86.3125C86.3125 42.8053 83.1785 39.6713 79.3125 39.6713V46.6713ZM79.3125 50.1088V57.1088C83.1785 57.1088 86.3125 53.9748 86.3125 50.1088H79.3125ZM69.125 50.1088V26.0463H55.125V50.1088H69.125ZM62.125 33.0463H79.3125V19.0463H62.125V33.0463ZM72.3125 26.0463V29.4838H86.3125V26.0463H72.3125ZM79.3125 22.4838H65.5625V36.4838H79.3125V22.4838ZM58.5625 29.4838V36.3588H72.5625V29.4838H58.5625ZM65.5625 43.3588H75.875V29.3588H65.5625V43.3588ZM68.875 36.3588V39.7963H82.875V36.3588H68.875ZM75.875 32.7963H65.5625V46.7963H75.875V32.7963ZM58.5625 39.7963V46.6713H72.5625V39.7963H58.5625ZM65.5625 53.6713H79.3125V39.6713H65.5625V53.6713ZM72.3125 46.6713V50.1088H86.3125V46.6713H72.3125ZM79.3125 43.1088H62.125V57.1088H79.3125V43.1088Z" fill="#181917" mask="url(#path-1-outside-1_126_69194)"/>
<mask id="path-3-outside-2_126_69194" maskUnits="userSpaceOnUse" x="79" y="1" width="31" height="56" fill="black">
<rect fill="white" x="79" y="1" width="31" height="56"/>
<path d="M85 51V44.75H91.25V19.75H85V13.5H91.25V7.25H97.5V44.75H103.75V51H85Z"/>
</mask>
<path d="M85 51V44.75H91.25V19.75H85V13.5H91.25V7.25H97.5V44.75H103.75V51H85Z" fill="#E5141F"/>
<path d="M85 51H79C79 54.3137 81.6863 57 85 57V51ZM85 44.75V38.75C81.6863 38.75 79 41.4363 79 44.75H85ZM91.25 44.75V50.75C94.5637 50.75 97.25 48.0637 97.25 44.75H91.25ZM91.25 19.75H97.25C97.25 16.4363 94.5637 13.75 91.25 13.75V19.75ZM85 19.75H79C79 23.0637 81.6863 25.75 85 25.75V19.75ZM85 13.5V7.5C81.6863 7.5 79 10.1863 79 13.5H85ZM91.25 13.5V19.5C94.5637 19.5 97.25 16.8137 97.25 13.5H91.25ZM91.25 7.25V1.25C87.9363 1.25 85.25 3.93629 85.25 7.25H91.25ZM97.5 7.25H103.5C103.5 3.93629 100.814 1.25 97.5 1.25V7.25ZM97.5 44.75H91.5C91.5 48.0637 94.1863 50.75 97.5 50.75V44.75ZM103.75 44.75H109.75C109.75 41.4363 107.064 38.75 103.75 38.75V44.75ZM103.75 51V57C107.064 57 109.75 54.3137 109.75 51H103.75ZM91 51V44.75H79V51H91ZM85 50.75H91.25V38.75H85V50.75ZM97.25 44.75V19.75H85.25V44.75H97.25ZM91.25 13.75H85V25.75H91.25V13.75ZM91 19.75V13.5H79V19.75H91ZM85 19.5H91.25V7.5H85V19.5ZM97.25 13.5V7.25H85.25V13.5H97.25ZM91.25 13.25H97.5V1.25H91.25V13.25ZM91.5 7.25V44.75H103.5V7.25H91.5ZM97.5 50.75H103.75V38.75H97.5V50.75ZM97.75 44.75V51H109.75V44.75H97.75ZM103.75 45H85V57H103.75V45Z" fill="#181917" mask="url(#path-3-outside-2_126_69194)"/>
<rect x="82" y="24" width="7" height="17" fill="#181917"/>
<ellipse cx="84.5" cy="4" rx="6.5" ry="4" fill="#181917"/>
</svg>
