<svg width="817" height="107" viewBox="0 0 817 107" fill="none" xmlns="http://www.w3.org/2000/svg">
<g filter="url(#filter0_d_126_69225)">
<path d="M192.716 30.96C192.972 31.984 193.1 33.264 193.1 34.8C193.1 36.272 192.972 37.552 192.716 38.64C192.972 39.664 193.1 40.944 193.1 42.48C193.1 43.952 192.972 45.232 192.716 46.32H188.876C189.132 47.344 189.26 48.624 189.26 50.16C189.26 51.632 189.132 52.912 188.876 54H165.836C165.58 52.912 165.452 51.632 165.452 50.16C165.452 48.624 165.58 47.344 165.836 46.32H161.996C161.74 45.232 161.612 43.952 161.612 42.48C161.612 40.944 161.74 39.664 161.996 38.64H169.676C169.932 39.664 170.06 40.944 170.06 42.48C170.06 43.952 169.932 45.232 169.676 46.32H185.036C184.78 45.232 184.652 43.952 184.652 42.48C184.652 40.944 184.78 39.664 185.036 38.64C184.78 37.552 184.652 36.272 184.652 34.8C184.652 33.264 184.78 31.984 185.036 30.96H165.836C165.58 29.872 165.452 28.592 165.452 27.12C165.452 25.584 165.58 24.304 165.836 23.28H161.996C161.74 22.192 161.612 20.912 161.612 19.44C161.612 17.904 161.74 16.624 161.996 15.6C161.74 14.512 161.612 13.232 161.612 11.76C161.612 10.224 161.74 8.944 161.996 7.92H165.836C165.58 6.832 165.452 5.552 165.452 4.08C165.452 2.544 165.58 1.264 165.836 0.24H188.876C189.132 1.264 189.26 2.544 189.26 4.08C189.26 5.552 189.132 6.832 188.876 7.92H192.716C192.972 8.944 193.1 10.224 193.1 11.76C193.1 13.232 192.972 14.512 192.716 15.6H185.036C184.78 14.512 184.652 13.232 184.652 11.76C184.652 10.224 184.78 8.944 185.036 7.92H169.676C169.932 8.944 170.06 10.224 170.06 11.76C170.06 13.232 169.932 14.512 169.676 15.6C169.932 16.624 170.06 17.904 170.06 19.44C170.06 20.912 169.932 22.192 169.676 23.28H188.876C189.132 24.304 189.26 25.584 189.26 27.12C189.26 28.592 189.132 29.872 188.876 30.96H192.716ZM231.538 4.08C231.538 5.552 231.41 6.832 231.154 7.92H219.634C219.89 8.944 220.018 10.224 220.018 11.76C220.018 13.232 219.89 14.512 219.634 15.6C219.89 16.624 220.018 17.904 220.018 19.44C220.018 20.912 219.89 22.192 219.634 23.28C219.89 24.304 220.018 25.584 220.018 27.12C220.018 28.592 219.89 29.872 219.634 30.96C219.89 31.984 220.018 33.264 220.018 34.8C220.018 36.272 219.89 37.552 219.634 38.64C219.89 39.664 220.018 40.944 220.018 42.48C220.018 43.952 219.89 45.232 219.634 46.32C219.89 47.344 220.018 48.624 220.018 50.16C220.018 51.632 219.89 52.912 219.634 54H211.954C211.698 52.912 211.57 51.632 211.57 50.16C211.57 48.624 211.698 47.344 211.954 46.32C211.698 45.232 211.57 43.952 211.57 42.48C211.57 40.944 211.698 39.664 211.954 38.64C211.698 37.552 211.57 36.272 211.57 34.8C211.57 33.264 211.698 31.984 211.954 30.96C211.698 29.872 211.57 28.592 211.57 27.12C211.57 25.584 211.698 24.304 211.954 23.28C211.698 22.192 211.57 20.912 211.57 19.44C211.57 17.904 211.698 16.624 211.954 15.6C211.698 14.512 211.57 13.232 211.57 11.76C211.57 10.224 211.698 8.944 211.954 7.92H200.434C200.178 6.832 200.05 5.552 200.05 4.08C200.05 2.544 200.178 1.264 200.434 0.24H231.154C231.41 1.264 231.538 2.544 231.538 4.08ZM269.975 42.48C269.975 43.952 269.847 45.232 269.591 46.32C269.847 47.344 269.975 48.624 269.975 50.16C269.975 51.632 269.847 52.912 269.591 54H261.911C261.655 52.912 261.527 51.632 261.527 50.16C261.527 48.624 261.655 47.344 261.911 46.32C261.655 45.232 261.527 43.952 261.527 42.48C261.527 40.944 261.655 39.664 261.911 38.64H246.551C246.807 39.664 246.935 40.944 246.935 42.48C246.935 43.952 246.807 45.232 246.551 46.32C246.807 47.344 246.935 48.624 246.935 50.16C246.935 51.632 246.807 52.912 246.551 54H238.871C238.615 52.912 238.487 51.632 238.487 50.16C238.487 48.624 238.615 47.344 238.871 46.32C238.615 45.232 238.487 43.952 238.487 42.48C238.487 40.944 238.615 39.664 238.871 38.64H241.751C241.495 37.552 241.367 36.272 241.367 34.8C241.367 33.264 241.495 31.984 241.751 30.96C241.495 29.872 241.367 28.592 241.367 27.12C241.367 25.584 241.495 24.304 241.751 23.28H243.671C243.415 22.192 243.287 20.912 243.287 19.44C243.287 17.904 243.415 16.624 243.671 15.6H246.551C246.295 14.512 246.167 13.232 246.167 11.76C246.167 10.224 246.295 8.944 246.551 7.92H248.471C248.215 6.832 248.087 5.552 248.087 4.08C248.087 2.544 248.215 1.264 248.471 0.24H259.991C260.247 1.264 260.375 2.544 260.375 4.08C260.375 5.552 260.247 6.832 259.991 7.92H261.911C262.167 8.944 262.295 10.224 262.295 11.76C262.295 13.232 262.167 14.512 261.911 15.6H264.791C265.047 16.624 265.175 17.904 265.175 19.44C265.175 20.912 265.047 22.192 264.791 23.28H266.711C266.967 24.304 267.095 25.584 267.095 27.12C267.095 28.592 266.967 29.872 266.711 30.96C266.967 31.984 267.095 33.264 267.095 34.8C267.095 36.272 266.967 37.552 266.711 38.64H269.591C269.847 39.664 269.975 40.944 269.975 42.48ZM259.031 30.96C258.775 29.872 258.647 28.592 258.647 27.12C258.647 25.584 258.775 24.304 259.031 23.28H257.111C256.855 22.192 256.727 20.912 256.727 19.44C256.727 17.904 256.855 16.624 257.111 15.6H251.351C251.607 16.624 251.735 17.904 251.735 19.44C251.735 20.912 251.607 22.192 251.351 23.28H249.431C249.687 24.304 249.815 25.584 249.815 27.12C249.815 28.592 249.687 29.872 249.431 30.96H259.031ZM308.413 4.08C308.413 5.552 308.285 6.832 308.029 7.92H296.509C296.765 8.944 296.893 10.224 296.893 11.76C296.893 13.232 296.765 14.512 296.509 15.6C296.765 16.624 296.893 17.904 296.893 19.44C296.893 20.912 296.765 22.192 296.509 23.28C296.765 24.304 296.893 25.584 296.893 27.12C296.893 28.592 296.765 29.872 296.509 30.96C296.765 31.984 296.893 33.264 296.893 34.8C296.893 36.272 296.765 37.552 296.509 38.64C296.765 39.664 296.893 40.944 296.893 42.48C296.893 43.952 296.765 45.232 296.509 46.32C296.765 47.344 296.893 48.624 296.893 50.16C296.893 51.632 296.765 52.912 296.509 54H288.829C288.573 52.912 288.445 51.632 288.445 50.16C288.445 48.624 288.573 47.344 288.829 46.32C288.573 45.232 288.445 43.952 288.445 42.48C288.445 40.944 288.573 39.664 288.829 38.64C288.573 37.552 288.445 36.272 288.445 34.8C288.445 33.264 288.573 31.984 288.829 30.96C288.573 29.872 288.445 28.592 288.445 27.12C288.445 25.584 288.573 24.304 288.829 23.28C288.573 22.192 288.445 20.912 288.445 19.44C288.445 17.904 288.573 16.624 288.829 15.6C288.573 14.512 288.445 13.232 288.445 11.76C288.445 10.224 288.573 8.944 288.829 7.92H277.309C277.053 6.832 276.925 5.552 276.925 4.08C276.925 2.544 277.053 1.264 277.309 0.24H308.029C308.285 1.264 308.413 2.544 308.413 4.08ZM346.466 7.92C346.722 8.944 346.85 10.224 346.85 11.76C346.85 13.232 346.722 14.512 346.466 15.6C346.722 16.624 346.85 17.904 346.85 19.44C346.85 20.912 346.722 22.192 346.466 23.28C346.722 24.304 346.85 25.584 346.85 27.12C346.85 28.592 346.722 29.872 346.466 30.96C346.722 31.984 346.85 33.264 346.85 34.8C346.85 36.272 346.722 37.552 346.466 38.64C346.722 39.664 346.85 40.944 346.85 42.48C346.85 43.952 346.722 45.232 346.466 46.32H342.626C342.882 47.344 343.01 48.624 343.01 50.16C343.01 51.632 342.882 52.912 342.626 54H319.586C319.33 52.912 319.202 51.632 319.202 50.16C319.202 48.624 319.33 47.344 319.586 46.32H315.746C315.49 45.232 315.362 43.952 315.362 42.48C315.362 40.944 315.49 39.664 315.746 38.64C315.49 37.552 315.362 36.272 315.362 34.8C315.362 33.264 315.49 31.984 315.746 30.96C315.49 29.872 315.362 28.592 315.362 27.12C315.362 25.584 315.49 24.304 315.746 23.28C315.49 22.192 315.362 20.912 315.362 19.44C315.362 17.904 315.49 16.624 315.746 15.6C315.49 14.512 315.362 13.232 315.362 11.76C315.362 10.224 315.49 8.944 315.746 7.92C315.49 6.832 315.362 5.552 315.362 4.08C315.362 2.544 315.49 1.264 315.746 0.24H323.426C323.682 1.264 323.81 2.544 323.81 4.08C323.81 5.552 323.682 6.832 323.426 7.92C323.682 8.944 323.81 10.224 323.81 11.76C323.81 13.232 323.682 14.512 323.426 15.6C323.682 16.624 323.81 17.904 323.81 19.44C323.81 20.912 323.682 22.192 323.426 23.28C323.682 24.304 323.81 25.584 323.81 27.12C323.81 28.592 323.682 29.872 323.426 30.96C323.682 31.984 323.81 33.264 323.81 34.8C323.81 36.272 323.682 37.552 323.426 38.64C323.682 39.664 323.81 40.944 323.81 42.48C323.81 43.952 323.682 45.232 323.426 46.32H338.786C338.53 45.232 338.402 43.952 338.402 42.48C338.402 40.944 338.53 39.664 338.786 38.64C338.53 37.552 338.402 36.272 338.402 34.8C338.402 33.264 338.53 31.984 338.786 30.96C338.53 29.872 338.402 28.592 338.402 27.12C338.402 25.584 338.53 24.304 338.786 23.28C338.53 22.192 338.402 20.912 338.402 19.44C338.402 17.904 338.53 16.624 338.786 15.6C338.53 14.512 338.402 13.232 338.402 11.76C338.402 10.224 338.53 8.944 338.786 7.92C338.53 6.832 338.402 5.552 338.402 4.08C338.402 2.544 338.53 1.264 338.786 0.24H346.466C346.722 1.264 346.85 2.544 346.85 4.08C346.85 5.552 346.722 6.832 346.466 7.92ZM384.904 30.96C385.16 31.984 385.288 33.264 385.288 34.8C385.288 36.272 385.16 37.552 384.904 38.64C385.16 39.664 385.288 40.944 385.288 42.48C385.288 43.952 385.16 45.232 384.904 46.32H381.064C381.32 47.344 381.448 48.624 381.448 50.16C381.448 51.632 381.32 52.912 381.064 54H358.024C357.768 52.912 357.64 51.632 357.64 50.16C357.64 48.624 357.768 47.344 358.024 46.32H354.184C353.928 45.232 353.8 43.952 353.8 42.48C353.8 40.944 353.928 39.664 354.184 38.64H361.864C362.12 39.664 362.248 40.944 362.248 42.48C362.248 43.952 362.12 45.232 361.864 46.32H377.224C376.968 45.232 376.84 43.952 376.84 42.48C376.84 40.944 376.968 39.664 377.224 38.64C376.968 37.552 376.84 36.272 376.84 34.8C376.84 33.264 376.968 31.984 377.224 30.96H358.024C357.768 29.872 357.64 28.592 357.64 27.12C357.64 25.584 357.768 24.304 358.024 23.28H354.184C353.928 22.192 353.8 20.912 353.8 19.44C353.8 17.904 353.928 16.624 354.184 15.6C353.928 14.512 353.8 13.232 353.8 11.76C353.8 10.224 353.928 8.944 354.184 7.92H358.024C357.768 6.832 357.64 5.552 357.64 4.08C357.64 2.544 357.768 1.264 358.024 0.24H381.064C381.32 1.264 381.448 2.544 381.448 4.08C381.448 5.552 381.32 6.832 381.064 7.92H384.904C385.16 8.944 385.288 10.224 385.288 11.76C385.288 13.232 385.16 14.512 384.904 15.6H377.224C376.968 14.512 376.84 13.232 376.84 11.76C376.84 10.224 376.968 8.944 377.224 7.92H361.864C362.12 8.944 362.248 10.224 362.248 11.76C362.248 13.232 362.12 14.512 361.864 15.6C362.12 16.624 362.248 17.904 362.248 19.44C362.248 20.912 362.12 22.192 361.864 23.28H381.064C381.32 24.304 381.448 25.584 381.448 27.12C381.448 28.592 381.32 29.872 381.064 30.96H384.904ZM461.779 38.64C462.035 39.664 462.163 40.944 462.163 42.48C462.163 43.952 462.035 45.232 461.779 46.32H457.939C458.195 47.344 458.323 48.624 458.323 50.16C458.323 51.632 458.195 52.912 457.939 54H438.739C438.483 52.912 438.355 51.632 438.355 50.16C438.355 48.624 438.483 47.344 438.739 46.32H434.899C434.643 45.232 434.515 43.952 434.515 42.48C434.515 40.944 434.643 39.664 434.899 38.64H431.059C430.803 37.552 430.675 36.272 430.675 34.8C430.675 33.264 430.803 31.984 431.059 30.96C430.803 29.872 430.675 28.592 430.675 27.12C430.675 25.584 430.803 24.304 431.059 23.28C430.803 22.192 430.675 20.912 430.675 19.44C430.675 17.904 430.803 16.624 431.059 15.6H434.899C434.643 14.512 434.515 13.232 434.515 11.76C434.515 10.224 434.643 8.944 434.899 7.92H438.739C438.483 6.832 438.355 5.552 438.355 4.08C438.355 2.544 438.483 1.264 438.739 0.24H457.939C458.195 1.264 458.323 2.544 458.323 4.08C458.323 5.552 458.195 6.832 457.939 7.92H461.779C462.035 8.944 462.163 10.224 462.163 11.76C462.163 13.232 462.035 14.512 461.779 15.6H454.099C453.843 14.512 453.715 13.232 453.715 11.76C453.715 10.224 453.843 8.944 454.099 7.92H442.579C442.835 8.944 442.963 10.224 442.963 11.76C442.963 13.232 442.835 14.512 442.579 15.6H438.739C438.995 16.624 439.123 17.904 439.123 19.44C439.123 20.912 438.995 22.192 438.739 23.28C438.995 24.304 439.123 25.584 439.123 27.12C439.123 28.592 438.995 29.872 438.739 30.96C438.995 31.984 439.123 33.264 439.123 34.8C439.123 36.272 438.995 37.552 438.739 38.64H442.579C442.835 39.664 442.963 40.944 442.963 42.48C442.963 43.952 442.835 45.232 442.579 46.32H454.099C453.843 45.232 453.715 43.952 453.715 42.48C453.715 40.944 453.843 39.664 454.099 38.64H461.779ZM500.216 23.28C500.472 24.304 500.6 25.584 500.6 27.12C500.6 28.592 500.472 29.872 500.216 30.96C500.472 31.984 500.6 33.264 500.6 34.8C500.6 36.272 500.472 37.552 500.216 38.64H497.336C497.592 39.664 497.72 40.944 497.72 42.48C497.72 43.952 497.592 45.232 497.336 46.32H492.536C492.792 47.344 492.92 48.624 492.92 50.16C492.92 51.632 492.792 52.912 492.536 54H477.176C476.92 52.912 476.792 51.632 476.792 50.16C476.792 48.624 476.92 47.344 477.176 46.32H472.376C472.12 45.232 471.992 43.952 471.992 42.48C471.992 40.944 472.12 39.664 472.376 38.64H469.496C469.24 37.552 469.112 36.272 469.112 34.8C469.112 33.264 469.24 31.984 469.496 30.96C469.24 29.872 469.112 28.592 469.112 27.12C469.112 25.584 469.24 24.304 469.496 23.28C469.24 22.192 469.112 20.912 469.112 19.44C469.112 17.904 469.24 16.624 469.496 15.6H472.376C472.12 14.512 471.992 13.232 471.992 11.76C471.992 10.224 472.12 8.944 472.376 7.92H477.176C476.92 6.832 476.792 5.552 476.792 4.08C476.792 2.544 476.92 1.264 477.176 0.24H492.536C492.792 1.264 492.92 2.544 492.92 4.08C492.92 5.552 492.792 6.832 492.536 7.92H497.336C497.592 8.944 497.72 10.224 497.72 11.76C497.72 13.232 497.592 14.512 497.336 15.6H500.216C500.472 16.624 500.6 17.904 500.6 19.44C500.6 20.912 500.472 22.192 500.216 23.28ZM492.536 38.64C492.28 37.552 492.152 36.272 492.152 34.8C492.152 33.264 492.28 31.984 492.536 30.96C492.28 29.872 492.152 28.592 492.152 27.12C492.152 25.584 492.28 24.304 492.536 23.28C492.28 22.192 492.152 20.912 492.152 19.44C492.152 17.904 492.28 16.624 492.536 15.6H489.656C489.4 14.512 489.272 13.232 489.272 11.76C489.272 10.224 489.4 8.944 489.656 7.92H480.056C480.312 8.944 480.44 10.224 480.44 11.76C480.44 13.232 480.312 14.512 480.056 15.6H477.176C477.432 16.624 477.56 17.904 477.56 19.44C477.56 20.912 477.432 22.192 477.176 23.28C477.432 24.304 477.56 25.584 477.56 27.12C477.56 28.592 477.432 29.872 477.176 30.96C477.432 31.984 477.56 33.264 477.56 34.8C477.56 36.272 477.432 37.552 477.176 38.64H480.056C480.312 39.664 480.44 40.944 480.44 42.48C480.44 43.952 480.312 45.232 480.056 46.32H489.656C489.4 45.232 489.272 43.952 489.272 42.48C489.272 40.944 489.4 39.664 489.656 38.64H492.536ZM538.654 23.28C538.91 24.304 539.038 25.584 539.038 27.12C539.038 28.592 538.91 29.872 538.654 30.96C538.91 31.984 539.038 33.264 539.038 34.8C539.038 36.272 538.91 37.552 538.654 38.64H534.814C535.07 39.664 535.198 40.944 535.198 42.48C535.198 43.952 535.07 45.232 534.814 46.32H530.974C531.23 47.344 531.358 48.624 531.358 50.16C531.358 51.632 531.23 52.912 530.974 54H507.934C507.678 52.912 507.55 51.632 507.55 50.16C507.55 48.624 507.678 47.344 507.934 46.32C507.678 45.232 507.55 43.952 507.55 42.48C507.55 40.944 507.678 39.664 507.934 38.64C507.678 37.552 507.55 36.272 507.55 34.8C507.55 33.264 507.678 31.984 507.934 30.96C507.678 29.872 507.55 28.592 507.55 27.12C507.55 25.584 507.678 24.304 507.934 23.28C507.678 22.192 507.55 20.912 507.55 19.44C507.55 17.904 507.678 16.624 507.934 15.6C507.678 14.512 507.55 13.232 507.55 11.76C507.55 10.224 507.678 8.944 507.934 7.92C507.678 6.832 507.55 5.552 507.55 4.08C507.55 2.544 507.678 1.264 507.934 0.24H530.974C531.23 1.264 531.358 2.544 531.358 4.08C531.358 5.552 531.23 6.832 530.974 7.92H534.814C535.07 8.944 535.198 10.224 535.198 11.76C535.198 13.232 535.07 14.512 534.814 15.6H538.654C538.91 16.624 539.038 17.904 539.038 19.44C539.038 20.912 538.91 22.192 538.654 23.28ZM530.974 38.64C530.718 37.552 530.59 36.272 530.59 34.8C530.59 33.264 530.718 31.984 530.974 30.96C530.718 29.872 530.59 28.592 530.59 27.12C530.59 25.584 530.718 24.304 530.974 23.28C530.718 22.192 530.59 20.912 530.59 19.44C530.59 17.904 530.718 16.624 530.974 15.6H527.134C526.878 14.512 526.75 13.232 526.75 11.76C526.75 10.224 526.878 8.944 527.134 7.92H515.614C515.87 8.944 515.998 10.224 515.998 11.76C515.998 13.232 515.87 14.512 515.614 15.6C515.87 16.624 515.998 17.904 515.998 19.44C515.998 20.912 515.87 22.192 515.614 23.28C515.87 24.304 515.998 25.584 515.998 27.12C515.998 28.592 515.87 29.872 515.614 30.96C515.87 31.984 515.998 33.264 515.998 34.8C515.998 36.272 515.87 37.552 515.614 38.64C515.87 39.664 515.998 40.944 515.998 42.48C515.998 43.952 515.87 45.232 515.614 46.32H527.134C526.878 45.232 526.75 43.952 526.75 42.48C526.75 40.944 526.878 39.664 527.134 38.64H530.974ZM557.891 30.96C558.147 31.984 558.275 33.264 558.275 34.8C558.275 36.272 558.147 37.552 557.891 38.64C558.147 39.664 558.275 40.944 558.275 42.48C558.275 43.952 558.147 45.232 557.891 46.32H573.251C573.507 47.344 573.635 48.624 573.635 50.16C573.635 51.632 573.507 52.912 573.251 54H550.211C549.955 52.912 549.827 51.632 549.827 50.16C549.827 48.624 549.955 47.344 550.211 46.32C549.955 45.232 549.827 43.952 549.827 42.48C549.827 40.944 549.955 39.664 550.211 38.64C549.955 37.552 549.827 36.272 549.827 34.8C549.827 33.264 549.955 31.984 550.211 30.96C549.955 29.872 549.827 28.592 549.827 27.12C549.827 25.584 549.955 24.304 550.211 23.28C549.955 22.192 549.827 20.912 549.827 19.44C549.827 17.904 549.955 16.624 550.211 15.6C549.955 14.512 549.827 13.232 549.827 11.76C549.827 10.224 549.955 8.944 550.211 7.92C549.955 6.832 549.827 5.552 549.827 4.08C549.827 2.544 549.955 1.264 550.211 0.24H573.251C573.507 1.264 573.635 2.544 573.635 4.08C573.635 5.552 573.507 6.832 573.251 7.92H557.891C558.147 8.944 558.275 10.224 558.275 11.76C558.275 13.232 558.147 14.512 557.891 15.6C558.147 16.624 558.275 17.904 558.275 19.44C558.275 20.912 558.147 22.192 557.891 23.28H573.251C573.507 24.304 573.635 25.584 573.635 27.12C573.635 28.592 573.507 29.872 573.251 30.96H557.891Z" fill="white"/>
<path d="M650.126 46.32C650.382 47.344 650.51 48.624 650.51 50.16C650.51 51.632 650.382 52.912 650.126 54H627.086C626.83 52.912 626.702 51.632 626.702 50.16C626.702 48.624 626.83 47.344 627.086 46.32H634.766C634.51 45.232 634.382 43.952 634.382 42.48C634.382 40.944 634.51 39.664 634.766 38.64C634.51 37.552 634.382 36.272 634.382 34.8C634.382 33.264 634.51 31.984 634.766 30.96C634.51 29.872 634.382 28.592 634.382 27.12C634.382 25.584 634.51 24.304 634.766 23.28C634.51 22.192 634.382 20.912 634.382 19.44C634.382 17.904 634.51 16.624 634.766 15.6H629.006C628.75 14.512 628.622 13.232 628.622 11.76C628.622 10.224 628.75 8.944 629.006 7.92H634.766C634.51 6.832 634.382 5.552 634.382 4.08C634.382 2.544 634.51 1.264 634.766 0.24H642.446C642.702 1.264 642.83 2.544 642.83 4.08C642.83 5.552 642.702 6.832 642.446 7.92C642.702 8.944 642.83 10.224 642.83 11.76C642.83 13.232 642.702 14.512 642.446 15.6C642.702 16.624 642.83 17.904 642.83 19.44C642.83 20.912 642.702 22.192 642.446 23.28C642.702 24.304 642.83 25.584 642.83 27.12C642.83 28.592 642.702 29.872 642.446 30.96C642.702 31.984 642.83 33.264 642.83 34.8C642.83 36.272 642.702 37.552 642.446 38.64C642.702 39.664 642.83 40.944 642.83 42.48C642.83 43.952 642.702 45.232 642.446 46.32H650.126Z" fill="#E73427"/>
</g>
<path d="M14.4 92.6C14.5067 93.0267 14.56 93.56 14.56 94.2C14.56 94.8133 14.5067 95.3467 14.4 95.8H12.8C12.9067 96.2267 12.96 96.76 12.96 97.4C12.96 98.0133 12.9067 98.5467 12.8 99H4.8C4.69333 98.5467 4.64 98.0133 4.64 97.4C4.64 96.76 4.69333 96.2267 4.8 95.8H3.2C3.09333 95.3467 3.04 94.8133 3.04 94.2C3.04 93.56 3.09333 93.0267 3.2 92.6H1.6C1.49333 92.1467 1.44 91.6133 1.44 91C1.44 90.36 1.49333 89.8267 1.6 89.4C1.49333 88.9467 1.44 88.4133 1.44 87.8C1.44 87.16 1.49333 86.6267 1.6 86.2C1.49333 85.7467 1.44 85.2133 1.44 84.6C1.44 83.96 1.49333 83.4267 1.6 83H3.2C3.09333 82.5467 3.04 82.0133 3.04 81.4C3.04 80.76 3.09333 80.2267 3.2 79.8H4.8C4.69333 79.3467 4.64 78.8133 4.64 78.2C4.64 77.56 4.69333 77.0267 4.8 76.6H12.8C12.9067 77.0267 12.96 77.56 12.96 78.2C12.96 78.8133 12.9067 79.3467 12.8 79.8H14.4C14.5067 80.2267 14.56 80.76 14.56 81.4C14.56 82.0133 14.5067 82.5467 14.4 83H11.2C11.0933 82.5467 11.04 82.0133 11.04 81.4C11.04 80.76 11.0933 80.2267 11.2 79.8H6.4C6.50667 80.2267 6.56 80.76 6.56 81.4C6.56 82.0133 6.50667 82.5467 6.4 83H4.8C4.90667 83.4267 4.96 83.96 4.96 84.6C4.96 85.2133 4.90667 85.7467 4.8 86.2C4.90667 86.6267 4.96 87.16 4.96 87.8C4.96 88.4133 4.90667 88.9467 4.8 89.4C4.90667 89.8267 4.96 90.36 4.96 91C4.96 91.6133 4.90667 92.1467 4.8 92.6H6.4C6.50667 93.0267 6.56 93.56 6.56 94.2C6.56 94.8133 6.50667 95.3467 6.4 95.8H11.2C11.0933 95.3467 11.04 94.8133 11.04 94.2C11.04 93.56 11.0933 93.0267 11.2 92.6H14.4ZM30.5756 91C30.5756 91.6133 30.5223 92.1467 30.4156 92.6H29.2156C29.3223 93.0267 29.3756 93.56 29.3756 94.2C29.3756 94.8133 29.3223 95.3467 29.2156 95.8H27.2156C27.3223 96.2267 27.3756 96.76 27.3756 97.4C27.3756 98.0133 27.3223 98.5467 27.2156 99H20.8156C20.709 98.5467 20.6556 98.0133 20.6556 97.4C20.6556 96.76 20.709 96.2267 20.8156 95.8H18.8156C18.709 95.3467 18.6556 94.8133 18.6556 94.2C18.6556 93.56 18.709 93.0267 18.8156 92.6H17.6156C17.509 92.1467 17.4556 91.6133 17.4556 91C17.4556 90.36 17.509 89.8267 17.6156 89.4H18.8156C18.709 88.9467 18.6556 88.4133 18.6556 87.8C18.6556 87.16 18.709 86.6267 18.8156 86.2H20.8156C20.709 85.7467 20.6556 85.2133 20.6556 84.6C20.6556 83.96 20.709 83.4267 20.8156 83H27.2156C27.3223 83.4267 27.3756 83.96 27.3756 84.6C27.3756 85.2133 27.3223 85.7467 27.2156 86.2H29.2156C29.3223 86.6267 29.3756 87.16 29.3756 87.8C29.3756 88.4133 29.3223 88.9467 29.2156 89.4H30.4156C30.5223 89.8267 30.5756 90.36 30.5756 91ZM27.2156 92.6C27.109 92.1467 27.0556 91.6133 27.0556 91C27.0556 90.36 27.109 89.8267 27.2156 89.4H26.0156C25.909 88.9467 25.8556 88.4133 25.8556 87.8C25.8556 87.16 25.909 86.6267 26.0156 86.2H22.0156C22.1223 86.6267 22.1756 87.16 22.1756 87.8C22.1756 88.4133 22.1223 88.9467 22.0156 89.4H20.8156C20.9223 89.8267 20.9756 90.36 20.9756 91C20.9756 91.6133 20.9223 92.1467 20.8156 92.6H22.0156C22.1223 93.0267 22.1756 93.56 22.1756 94.2C22.1756 94.8133 22.1223 95.3467 22.0156 95.8H26.0156C25.909 95.3467 25.8556 94.8133 25.8556 94.2C25.8556 93.56 25.909 93.0267 26.0156 92.6H27.2156ZM46.4313 79.8C46.5379 80.2267 46.5913 80.76 46.5913 81.4C46.5913 82.0133 46.5379 82.5467 46.4313 83C46.5379 83.4267 46.5913 83.96 46.5913 84.6C46.5913 85.2133 46.5379 85.7467 46.4313 86.2C46.5379 86.6267 46.5913 87.16 46.5913 87.8C46.5913 88.4133 46.5379 88.9467 46.4313 89.4C46.5379 89.8267 46.5913 90.36 46.5913 91C46.5913 91.6133 46.5379 92.1467 46.4313 92.6C46.5379 93.0267 46.5913 93.56 46.5913 94.2C46.5913 94.8133 46.5379 95.3467 46.4313 95.8C46.5379 96.2267 46.5913 96.76 46.5913 97.4C46.5913 98.0133 46.5379 98.5467 46.4313 99H43.2313C43.1246 98.5467 43.0713 98.0133 43.0713 97.4C43.0713 96.76 43.1246 96.2267 43.2313 95.8H42.0312C41.9246 95.3467 41.8713 94.8133 41.8713 94.2C41.8713 93.56 41.9246 93.0267 42.0312 92.6H43.2313C43.1246 92.1467 43.0713 91.6133 43.0713 91C43.0713 90.36 43.1246 89.8267 43.2313 89.4H42.0312C41.9246 88.9467 41.8713 88.4133 41.8713 87.8C41.8713 87.16 41.9246 86.6267 42.0312 86.2H43.2313C43.1246 85.7467 43.0713 85.2133 43.0713 84.6C43.0713 83.96 43.1246 83.4267 43.2313 83C43.1246 82.5467 43.0713 82.0133 43.0713 81.4C43.0713 80.76 43.1246 80.2267 43.2313 79.8C43.1246 79.3467 43.0713 78.8133 43.0713 78.2C43.0713 77.56 43.1246 77.0267 43.2313 76.6H46.4313C46.5379 77.0267 46.5913 77.56 46.5913 78.2C46.5913 78.8133 46.5379 79.3467 46.4313 79.8ZM41.3913 84.6C41.3913 85.2133 41.3379 85.7467 41.2313 86.2H37.2313C37.3379 86.6267 37.3913 87.16 37.3913 87.8C37.3913 88.4133 37.3379 88.9467 37.2313 89.4H36.0313C36.1379 89.8267 36.1913 90.36 36.1913 91C36.1913 91.6133 36.1379 92.1467 36.0313 92.6H37.2313C37.3379 93.0267 37.3913 93.56 37.3913 94.2C37.3913 94.8133 37.3379 95.3467 37.2313 95.8H41.2313C41.3379 96.2267 41.3913 96.76 41.3913 97.4C41.3913 98.0133 41.3379 98.5467 41.2313 99H36.8313C36.7246 98.5467 36.6713 98.0133 36.6713 97.4C36.6713 96.76 36.7246 96.2267 36.8313 95.8H34.8313C34.7246 95.3467 34.6712 94.8133 34.6712 94.2C34.6712 93.56 34.7246 93.0267 34.8313 92.6H33.6313C33.5246 92.1467 33.4713 91.6133 33.4713 91C33.4713 90.36 33.5246 89.8267 33.6313 89.4H34.8313C34.7246 88.9467 34.6712 88.4133 34.6712 87.8C34.6712 87.16 34.7246 86.6267 34.8313 86.2H36.8313C36.7246 85.7467 36.6713 85.2133 36.6713 84.6C36.6713 83.96 36.7246 83.4267 36.8313 83H41.2313C41.3379 83.4267 41.3913 83.96 41.3913 84.6ZM62.6069 87.8C62.6069 88.4133 62.5535 88.9467 62.4469 89.4C62.5535 89.8267 62.6069 90.36 62.6069 91C62.6069 91.6133 62.5535 92.1467 62.4469 92.6H54.0469C54.1535 93.0267 54.2069 93.56 54.2069 94.2C54.2069 94.8133 54.1535 95.3467 54.0469 95.8H60.8469C60.9535 96.2267 61.0069 96.76 61.0069 97.4C61.0069 98.0133 60.9535 98.5467 60.8469 99H52.8469C52.7402 98.5467 52.6869 98.0133 52.6869 97.4C52.6869 96.76 52.7402 96.2267 52.8469 95.8H50.8469C50.7402 95.3467 50.6869 94.8133 50.6869 94.2C50.6869 93.56 50.7402 93.0267 50.8469 92.6H49.6469C49.5402 92.1467 49.4869 91.6133 49.4869 91C49.4869 90.36 49.5402 89.8267 49.6469 89.4H50.8469C50.7402 88.9467 50.6869 88.4133 50.6869 87.8C50.6869 87.16 50.7402 86.6267 50.8469 86.2H52.8469C52.7402 85.7467 52.6869 85.2133 52.6869 84.6C52.6869 83.96 52.7402 83.4267 52.8469 83H60.8469C60.9535 83.4267 61.0069 83.96 61.0069 84.6C61.0069 85.2133 60.9535 85.7467 60.8469 86.2H62.4469C62.5535 86.6267 62.6069 87.16 62.6069 87.8ZM59.2469 89.4C59.1402 88.9467 59.0869 88.4133 59.0869 87.8C59.0869 87.16 59.1402 86.6267 59.2469 86.2H54.0469C54.1535 86.6267 54.2069 87.16 54.2069 87.8C54.2069 88.4133 54.1535 88.9467 54.0469 89.4H59.2469ZM94.4781 79.8C94.5848 80.2267 94.6381 80.76 94.6381 81.4C94.6381 82.0133 94.5848 82.5467 94.4781 83C94.5848 83.4267 94.6381 83.96 94.6381 84.6C94.6381 85.2133 94.5848 85.7467 94.4781 86.2C94.5848 86.6267 94.6381 87.16 94.6381 87.8C94.6381 88.4133 94.5848 88.9467 94.4781 89.4H93.2781C93.3848 89.8267 93.4381 90.36 93.4381 91C93.4381 91.6133 93.3848 92.1467 93.2781 92.6C93.3848 93.0267 93.4381 93.56 93.4381 94.2C93.4381 94.8133 93.3848 95.3467 93.2781 95.8H92.4781C92.5848 96.2267 92.6381 96.76 92.6381 97.4C92.6381 98.0133 92.5848 98.5467 92.4781 99H90.0781C89.9715 98.5467 89.9181 98.0133 89.9181 97.4C89.9181 96.76 89.9715 96.2267 90.0781 95.8H89.2781C89.1715 95.3467 89.1181 94.8133 89.1181 94.2C89.1181 93.56 89.1715 93.0267 89.2781 92.6H86.8781C86.9848 93.0267 87.0381 93.56 87.0381 94.2C87.0381 94.8133 86.9848 95.3467 86.8781 95.8H86.0781C86.1848 96.2267 86.2381 96.76 86.2381 97.4C86.2381 98.0133 86.1848 98.5467 86.0781 99H83.6781C83.5715 98.5467 83.5181 98.0133 83.5181 97.4C83.5181 96.76 83.5715 96.2267 83.6781 95.8H82.8781C82.7715 95.3467 82.7181 94.8133 82.7181 94.2C82.7181 93.56 82.7715 93.0267 82.8781 92.6C82.7715 92.1467 82.7181 91.6133 82.7181 91C82.7181 90.36 82.7715 89.8267 82.8781 89.4H81.6781C81.5715 88.9467 81.5181 88.4133 81.5181 87.8C81.5181 87.16 81.5715 86.6267 81.6781 86.2C81.5715 85.7467 81.5181 85.2133 81.5181 84.6C81.5181 83.96 81.5715 83.4267 81.6781 83C81.5715 82.5467 81.5181 82.0133 81.5181 81.4C81.5181 80.76 81.5715 80.2267 81.6781 79.8C81.5715 79.3467 81.5181 78.8133 81.5181 78.2C81.5181 77.56 81.5715 77.0267 81.6781 76.6H84.8781C84.9848 77.0267 85.0381 77.56 85.0381 78.2C85.0381 78.8133 84.9848 79.3467 84.8781 79.8C84.9848 80.2267 85.0381 80.76 85.0381 81.4C85.0381 82.0133 84.9848 82.5467 84.8781 83C84.9848 83.4267 85.0381 83.96 85.0381 84.6C85.0381 85.2133 84.9848 85.7467 84.8781 86.2C84.9848 86.6267 85.0381 87.16 85.0381 87.8C85.0381 88.4133 84.9848 88.9467 84.8781 89.4C84.9848 89.8267 85.0381 90.36 85.0381 91C85.0381 91.6133 84.9848 92.1467 84.8781 92.6H86.0781C85.9715 92.1467 85.9181 91.6133 85.9181 91C85.9181 90.36 85.9715 89.8267 86.0781 89.4H86.8781C86.7715 88.9467 86.7181 88.4133 86.7181 87.8C86.7181 87.16 86.7715 86.6267 86.8781 86.2C86.7715 85.7467 86.7181 85.2133 86.7181 84.6C86.7181 83.96 86.7715 83.4267 86.8781 83C86.7715 82.5467 86.7181 82.0133 86.7181 81.4C86.7181 80.76 86.7715 80.2267 86.8781 79.8C86.7715 79.3467 86.7181 78.8133 86.7181 78.2C86.7181 77.56 86.7715 77.0267 86.8781 76.6H89.2781C89.3848 77.0267 89.4381 77.56 89.4381 78.2C89.4381 78.8133 89.3848 79.3467 89.2781 79.8C89.3848 80.2267 89.4381 80.76 89.4381 81.4C89.4381 82.0133 89.3848 82.5467 89.2781 83C89.3848 83.4267 89.4381 83.96 89.4381 84.6C89.4381 85.2133 89.3848 85.7467 89.2781 86.2C89.3848 86.6267 89.4381 87.16 89.4381 87.8C89.4381 88.4133 89.3848 88.9467 89.2781 89.4H90.0781C90.1848 89.8267 90.2381 90.36 90.2381 91C90.2381 91.6133 90.1848 92.1467 90.0781 92.6H91.2781C91.1715 92.1467 91.1181 91.6133 91.1181 91C91.1181 90.36 91.1715 89.8267 91.2781 89.4C91.1715 88.9467 91.1181 88.4133 91.1181 87.8C91.1181 87.16 91.1715 86.6267 91.2781 86.2C91.1715 85.7467 91.1181 85.2133 91.1181 84.6C91.1181 83.96 91.1715 83.4267 91.2781 83C91.1715 82.5467 91.1181 82.0133 91.1181 81.4C91.1181 80.76 91.1715 80.2267 91.2781 79.8C91.1715 79.3467 91.1181 78.8133 91.1181 78.2C91.1181 77.56 91.1715 77.0267 91.2781 76.6H94.4781C94.5848 77.0267 94.6381 77.56 94.6381 78.2C94.6381 78.8133 94.5848 79.3467 94.4781 79.8ZM102.494 79.8C102.387 79.3467 102.334 78.8133 102.334 78.2C102.334 77.56 102.387 77.0267 102.494 76.6H105.694C105.8 77.0267 105.854 77.56 105.854 78.2C105.854 78.8133 105.8 79.3467 105.694 79.8H102.494ZM108.894 95.8C109 96.2267 109.054 96.76 109.054 97.4C109.054 98.0133 109 98.5467 108.894 99H99.2938C99.1871 98.5467 99.1338 98.0133 99.1338 97.4C99.1338 96.76 99.1871 96.2267 99.2938 95.8H102.494C102.387 95.3467 102.334 94.8133 102.334 94.2C102.334 93.56 102.387 93.0267 102.494 92.6C102.387 92.1467 102.334 91.6133 102.334 91C102.334 90.36 102.387 89.8267 102.494 89.4C102.387 88.9467 102.334 88.4133 102.334 87.8C102.334 87.16 102.387 86.6267 102.494 86.2H100.094C99.9871 85.7467 99.9338 85.2133 99.9338 84.6C99.9338 83.96 99.9871 83.4267 100.094 83H105.694C105.8 83.4267 105.854 83.96 105.854 84.6C105.854 85.2133 105.8 85.7467 105.694 86.2C105.8 86.6267 105.854 87.16 105.854 87.8C105.854 88.4133 105.8 88.9467 105.694 89.4C105.8 89.8267 105.854 90.36 105.854 91C105.854 91.6133 105.8 92.1467 105.694 92.6C105.8 93.0267 105.854 93.56 105.854 94.2C105.854 94.8133 105.8 95.3467 105.694 95.8H108.894ZM124.909 95.8C125.016 96.2267 125.069 96.76 125.069 97.4C125.069 98.0133 125.016 98.5467 124.909 99H118.509C118.403 98.5467 118.349 98.0133 118.349 97.4C118.349 96.76 118.403 96.2267 118.509 95.8H116.909C116.803 95.3467 116.749 94.8133 116.749 94.2C116.749 93.56 116.803 93.0267 116.909 92.6C116.803 92.1467 116.749 91.6133 116.749 91C116.749 90.36 116.803 89.8267 116.909 89.4C116.803 88.9467 116.749 88.4133 116.749 87.8C116.749 87.16 116.803 86.6267 116.909 86.2H113.709C113.603 85.7467 113.549 85.2133 113.549 84.6C113.549 83.96 113.603 83.4267 113.709 83H116.909C116.803 82.5467 116.749 82.0133 116.749 81.4C116.749 80.76 116.803 80.2267 116.909 79.8C116.803 79.3467 116.749 78.8133 116.749 78.2C116.749 77.56 116.803 77.0267 116.909 76.6H120.109C120.216 77.0267 120.269 77.56 120.269 78.2C120.269 78.8133 120.216 79.3467 120.109 79.8C120.216 80.2267 120.269 80.76 120.269 81.4C120.269 82.0133 120.216 82.5467 120.109 83H124.909C125.016 83.4267 125.069 83.96 125.069 84.6C125.069 85.2133 125.016 85.7467 124.909 86.2H120.109C120.216 86.6267 120.269 87.16 120.269 87.8C120.269 88.4133 120.216 88.9467 120.109 89.4C120.216 89.8267 120.269 90.36 120.269 91C120.269 91.6133 120.216 92.1467 120.109 92.6C120.216 93.0267 120.269 93.56 120.269 94.2C120.269 94.8133 120.216 95.3467 120.109 95.8H124.909ZM133.085 84.6C133.085 85.2133 133.032 85.7467 132.925 86.2H134.125C134.232 86.6267 134.285 87.16 134.285 87.8C134.285 88.4133 134.232 88.9467 134.125 89.4H132.925C133.032 89.8267 133.085 90.36 133.085 91C133.085 91.6133 133.032 92.1467 132.925 92.6C133.032 93.0267 133.085 93.56 133.085 94.2C133.085 94.8133 133.032 95.3467 132.925 95.8C133.032 96.2267 133.085 96.76 133.085 97.4C133.085 98.0133 133.032 98.5467 132.925 99H129.725C129.618 98.5467 129.565 98.0133 129.565 97.4C129.565 96.76 129.618 96.2267 129.725 95.8C129.618 95.3467 129.565 94.8133 129.565 94.2C129.565 93.56 129.618 93.0267 129.725 92.6C129.618 92.1467 129.565 91.6133 129.565 91C129.565 90.36 129.618 89.8267 129.725 89.4C129.618 88.9467 129.565 88.4133 129.565 87.8C129.565 87.16 129.618 86.6267 129.725 86.2C129.618 85.7467 129.565 85.2133 129.565 84.6C129.565 83.96 129.618 83.4267 129.725 83C129.618 82.5467 129.565 82.0133 129.565 81.4C129.565 80.76 129.618 80.2267 129.725 79.8C129.618 79.3467 129.565 78.8133 129.565 78.2C129.565 77.56 129.618 77.0267 129.725 76.6H132.925C133.032 77.0267 133.085 77.56 133.085 78.2C133.085 78.8133 133.032 79.3467 132.925 79.8C133.032 80.2267 133.085 80.76 133.085 81.4C133.085 82.0133 133.032 82.5467 132.925 83C133.032 83.4267 133.085 83.96 133.085 84.6ZM142.525 89.4C142.632 89.8267 142.685 90.36 142.685 91C142.685 91.6133 142.632 92.1467 142.525 92.6C142.632 93.0267 142.685 93.56 142.685 94.2C142.685 94.8133 142.632 95.3467 142.525 95.8C142.632 96.2267 142.685 96.76 142.685 97.4C142.685 98.0133 142.632 98.5467 142.525 99H139.325C139.218 98.5467 139.165 98.0133 139.165 97.4C139.165 96.76 139.218 96.2267 139.325 95.8C139.218 95.3467 139.165 94.8133 139.165 94.2C139.165 93.56 139.218 93.0267 139.325 92.6C139.218 92.1467 139.165 91.6133 139.165 91C139.165 90.36 139.218 89.8267 139.325 89.4C139.218 88.9467 139.165 88.4133 139.165 87.8C139.165 87.16 139.218 86.6267 139.325 86.2H134.125C134.018 85.7467 133.965 85.2133 133.965 84.6C133.965 83.96 134.018 83.4267 134.125 83H140.525C140.632 83.4267 140.685 83.96 140.685 84.6C140.685 85.2133 140.632 85.7467 140.525 86.2H142.525C142.632 86.6267 142.685 87.16 142.685 87.8C142.685 88.4133 142.632 88.9467 142.525 89.4ZM174.716 81.4C174.716 82.0133 174.663 82.5467 174.556 83C174.663 83.4267 174.716 83.96 174.716 84.6C174.716 85.2133 174.663 85.7467 174.556 86.2H172.956C173.063 86.6267 173.116 87.16 173.116 87.8C173.116 88.4133 173.063 88.9467 172.956 89.4H164.956C165.063 89.8267 165.116 90.36 165.116 91C165.116 91.6133 165.063 92.1467 164.956 92.6C165.063 93.0267 165.116 93.56 165.116 94.2C165.116 94.8133 165.063 95.3467 164.956 95.8C165.063 96.2267 165.116 96.76 165.116 97.4C165.116 98.0133 165.063 98.5467 164.956 99H161.756C161.65 98.5467 161.596 98.0133 161.596 97.4C161.596 96.76 161.65 96.2267 161.756 95.8C161.65 95.3467 161.596 94.8133 161.596 94.2C161.596 93.56 161.65 93.0267 161.756 92.6C161.65 92.1467 161.596 91.6133 161.596 91C161.596 90.36 161.65 89.8267 161.756 89.4C161.65 88.9467 161.596 88.4133 161.596 87.8C161.596 87.16 161.65 86.6267 161.756 86.2C161.65 85.7467 161.596 85.2133 161.596 84.6C161.596 83.96 161.65 83.4267 161.756 83C161.65 82.5467 161.596 82.0133 161.596 81.4C161.596 80.76 161.65 80.2267 161.756 79.8C161.65 79.3467 161.596 78.8133 161.596 78.2C161.596 77.56 161.65 77.0267 161.756 76.6H172.956C173.063 77.0267 173.116 77.56 173.116 78.2C173.116 78.8133 173.063 79.3467 172.956 79.8H174.556C174.663 80.2267 174.716 80.76 174.716 81.4ZM171.356 86.2C171.25 85.7467 171.196 85.2133 171.196 84.6C171.196 83.96 171.25 83.4267 171.356 83C171.25 82.5467 171.196 82.0133 171.196 81.4C171.196 80.76 171.25 80.2267 171.356 79.8H164.956C165.063 80.2267 165.116 80.76 165.116 81.4C165.116 82.0133 165.063 82.5467 164.956 83C165.063 83.4267 165.116 83.96 165.116 84.6C165.116 85.2133 165.063 85.7467 164.956 86.2H171.356ZM182.332 94.2C182.332 94.8133 182.279 95.3467 182.172 95.8H186.172C186.279 96.2267 186.332 96.76 186.332 97.4C186.332 98.0133 186.279 98.5467 186.172 99H179.772C179.665 98.5467 179.612 98.0133 179.612 97.4C179.612 96.76 179.665 96.2267 179.772 95.8H177.772C177.665 95.3467 177.612 94.8133 177.612 94.2C177.612 93.56 177.665 93.0267 177.772 92.6C177.665 92.1467 177.612 91.6133 177.612 91C177.612 90.36 177.665 89.8267 177.772 89.4C177.665 88.9467 177.612 88.4133 177.612 87.8C177.612 87.16 177.665 86.6267 177.772 86.2C177.665 85.7467 177.612 85.2133 177.612 84.6C177.612 83.96 177.665 83.4267 177.772 83H180.972C181.079 83.4267 181.132 83.96 181.132 84.6C181.132 85.2133 181.079 85.7467 180.972 86.2C181.079 86.6267 181.132 87.16 181.132 87.8C181.132 88.4133 181.079 88.9467 180.972 89.4C181.079 89.8267 181.132 90.36 181.132 91C181.132 91.6133 181.079 92.1467 180.972 92.6H182.172C182.279 93.0267 182.332 93.56 182.332 94.2ZM190.572 86.2C190.679 86.6267 190.732 87.16 190.732 87.8C190.732 88.4133 190.679 88.9467 190.572 89.4C190.679 89.8267 190.732 90.36 190.732 91C190.732 91.6133 190.679 92.1467 190.572 92.6C190.679 93.0267 190.732 93.56 190.732 94.2C190.732 94.8133 190.679 95.3467 190.572 95.8C190.679 96.2267 190.732 96.76 190.732 97.4C190.732 98.0133 190.679 98.5467 190.572 99H187.372C187.265 98.5467 187.212 98.0133 187.212 97.4C187.212 96.76 187.265 96.2267 187.372 95.8H186.172C186.065 95.3467 186.012 94.8133 186.012 94.2C186.012 93.56 186.065 93.0267 186.172 92.6H187.372C187.265 92.1467 187.212 91.6133 187.212 91C187.212 90.36 187.265 89.8267 187.372 89.4C187.265 88.9467 187.212 88.4133 187.212 87.8C187.212 87.16 187.265 86.6267 187.372 86.2C187.265 85.7467 187.212 85.2133 187.212 84.6C187.212 83.96 187.265 83.4267 187.372 83H190.572C190.679 83.4267 190.732 83.96 190.732 84.6C190.732 85.2133 190.679 85.7467 190.572 86.2ZM206.588 86.2C206.694 86.6267 206.748 87.16 206.748 87.8C206.748 88.4133 206.694 88.9467 206.588 89.4H203.388C203.281 88.9467 203.228 88.4133 203.228 87.8C203.228 87.16 203.281 86.6267 203.388 86.2H200.588C200.694 86.6267 200.748 87.16 200.748 87.8C200.748 88.4133 200.694 88.9467 200.588 89.4H199.388C199.494 89.8267 199.548 90.36 199.548 91C199.548 91.6133 199.494 92.1467 199.388 92.6C199.494 93.0267 199.548 93.56 199.548 94.2C199.548 94.8133 199.494 95.3467 199.388 95.8H201.788C201.894 96.2267 201.948 96.76 201.948 97.4C201.948 98.0133 201.894 98.5467 201.788 99H193.788C193.681 98.5467 193.628 98.0133 193.628 97.4C193.628 96.76 193.681 96.2267 193.788 95.8H196.188C196.081 95.3467 196.028 94.8133 196.028 94.2C196.028 93.56 196.081 93.0267 196.188 92.6C196.081 92.1467 196.028 91.6133 196.028 91C196.028 90.36 196.081 89.8267 196.188 89.4C196.081 88.9467 196.028 88.4133 196.028 87.8C196.028 87.16 196.081 86.6267 196.188 86.2H193.788C193.681 85.7467 193.628 85.2133 193.628 84.6C193.628 83.96 193.681 83.4267 193.788 83H197.788C197.894 83.4267 197.948 83.96 197.948 84.6C197.948 85.2133 197.894 85.7467 197.788 86.2H199.388C199.281 85.7467 199.228 85.2133 199.228 84.6C199.228 83.96 199.281 83.4267 199.388 83H205.388C205.494 83.4267 205.548 83.96 205.548 84.6C205.548 85.2133 205.494 85.7467 205.388 86.2H206.588ZM222.763 91C222.763 91.6133 222.71 92.1467 222.603 92.6H221.003C221.11 93.0267 221.163 93.56 221.163 94.2C221.163 94.8133 221.11 95.3467 221.003 95.8H219.403C219.51 96.2267 219.563 96.76 219.563 97.4C219.563 98.0133 219.51 98.5467 219.403 99H213.003C213.11 99.4267 213.163 99.96 213.163 100.6C213.163 101.213 213.11 101.747 213.003 102.2C213.11 102.627 213.163 103.16 213.163 103.8C213.163 104.413 213.11 104.947 213.003 105.4H209.803C209.696 104.947 209.643 104.413 209.643 103.8C209.643 103.16 209.696 102.627 209.803 102.2C209.696 101.747 209.643 101.213 209.643 100.6C209.643 99.96 209.696 99.4267 209.803 99C209.696 98.5467 209.643 98.0133 209.643 97.4C209.643 96.76 209.696 96.2267 209.803 95.8C209.696 95.3467 209.643 94.8133 209.643 94.2C209.643 93.56 209.696 93.0267 209.803 92.6C209.696 92.1467 209.643 91.6133 209.643 91C209.643 90.36 209.696 89.8267 209.803 89.4C209.696 88.9467 209.643 88.4133 209.643 87.8C209.643 87.16 209.696 86.6267 209.803 86.2C209.696 85.7467 209.643 85.2133 209.643 84.6C209.643 83.96 209.696 83.4267 209.803 83H213.003C213.11 83.4267 213.163 83.96 213.163 84.6C213.163 85.2133 213.11 85.7467 213.003 86.2H214.603C214.71 86.6267 214.763 87.16 214.763 87.8C214.763 88.4133 214.71 88.9467 214.603 89.4H213.003C213.11 89.8267 213.163 90.36 213.163 91C213.163 91.6133 213.11 92.1467 213.003 92.6C213.11 93.0267 213.163 93.56 213.163 94.2C213.163 94.8133 213.11 95.3467 213.003 95.8H217.803C217.696 95.3467 217.643 94.8133 217.643 94.2C217.643 93.56 217.696 93.0267 217.803 92.6H219.403C219.296 92.1467 219.243 91.6133 219.243 91C219.243 90.36 219.296 89.8267 219.403 89.4H217.803C217.696 88.9467 217.643 88.4133 217.643 87.8C217.643 87.16 217.696 86.6267 217.803 86.2H214.603C214.496 85.7467 214.443 85.2133 214.443 84.6C214.443 83.96 214.496 83.4267 214.603 83H219.403C219.51 83.4267 219.563 83.96 219.563 84.6C219.563 85.2133 219.51 85.7467 219.403 86.2H221.003C221.11 86.6267 221.163 87.16 221.163 87.8C221.163 88.4133 221.11 88.9467 221.003 89.4H222.603C222.71 89.8267 222.763 90.36 222.763 91ZM238.779 91C238.779 91.6133 238.725 92.1467 238.619 92.6H237.419C237.525 93.0267 237.579 93.56 237.579 94.2C237.579 94.8133 237.525 95.3467 237.419 95.8H235.419C235.525 96.2267 235.579 96.76 235.579 97.4C235.579 98.0133 235.525 98.5467 235.419 99H229.019C228.912 98.5467 228.859 98.0133 228.859 97.4C228.859 96.76 228.912 96.2267 229.019 95.8H227.019C226.912 95.3467 226.859 94.8133 226.859 94.2C226.859 93.56 226.912 93.0267 227.019 92.6H225.819C225.712 92.1467 225.659 91.6133 225.659 91C225.659 90.36 225.712 89.8267 225.819 89.4H227.019C226.912 88.9467 226.859 88.4133 226.859 87.8C226.859 87.16 226.912 86.6267 227.019 86.2H229.019C228.912 85.7467 228.859 85.2133 228.859 84.6C228.859 83.96 228.912 83.4267 229.019 83H235.419C235.525 83.4267 235.579 83.96 235.579 84.6C235.579 85.2133 235.525 85.7467 235.419 86.2H237.419C237.525 86.6267 237.579 87.16 237.579 87.8C237.579 88.4133 237.525 88.9467 237.419 89.4H238.619C238.725 89.8267 238.779 90.36 238.779 91ZM235.419 92.6C235.312 92.1467 235.259 91.6133 235.259 91C235.259 90.36 235.312 89.8267 235.419 89.4H234.219C234.112 88.9467 234.059 88.4133 234.059 87.8C234.059 87.16 234.112 86.6267 234.219 86.2H230.219C230.325 86.6267 230.379 87.16 230.379 87.8C230.379 88.4133 230.325 88.9467 230.219 89.4H229.019C229.125 89.8267 229.179 90.36 229.179 91C229.179 91.6133 229.125 92.1467 229.019 92.6H230.219C230.325 93.0267 230.379 93.56 230.379 94.2C230.379 94.8133 230.325 95.3467 230.219 95.8H234.219C234.112 95.3467 234.059 94.8133 234.059 94.2C234.059 93.56 234.112 93.0267 234.219 92.6H235.419ZM253.994 94.2C253.994 94.8133 253.941 95.3467 253.834 95.8H252.234C252.341 96.2267 252.394 96.76 252.394 97.4C252.394 98.0133 252.341 98.5467 252.234 99H243.434C243.328 98.5467 243.274 98.0133 243.274 97.4C243.274 96.76 243.328 96.2267 243.434 95.8H250.634C250.528 95.3467 250.474 94.8133 250.474 94.2C250.474 93.56 250.528 93.0267 250.634 92.6H244.234C244.128 92.1467 244.074 91.6133 244.074 91C244.074 90.36 244.128 89.8267 244.234 89.4H242.634C242.528 88.9467 242.474 88.4133 242.474 87.8C242.474 87.16 242.528 86.6267 242.634 86.2H244.234C244.128 85.7467 244.074 85.2133 244.074 84.6C244.074 83.96 244.128 83.4267 244.234 83H253.034C253.141 83.4267 253.194 83.96 253.194 84.6C253.194 85.2133 253.141 85.7467 253.034 86.2H245.834C245.941 86.6267 245.994 87.16 245.994 87.8C245.994 88.4133 245.941 88.9467 245.834 89.4H252.234C252.341 89.8267 252.394 90.36 252.394 91C252.394 91.6133 252.341 92.1467 252.234 92.6H253.834C253.941 93.0267 253.994 93.56 253.994 94.2ZM270.81 87.8C270.81 88.4133 270.757 88.9467 270.65 89.4C270.757 89.8267 270.81 90.36 270.81 91C270.81 91.6133 270.757 92.1467 270.65 92.6H262.25C262.357 93.0267 262.41 93.56 262.41 94.2C262.41 94.8133 262.357 95.3467 262.25 95.8H269.05C269.157 96.2267 269.21 96.76 269.21 97.4C269.21 98.0133 269.157 98.5467 269.05 99H261.05C260.943 98.5467 260.89 98.0133 260.89 97.4C260.89 96.76 260.943 96.2267 261.05 95.8H259.05C258.943 95.3467 258.89 94.8133 258.89 94.2C258.89 93.56 258.943 93.0267 259.05 92.6H257.85C257.743 92.1467 257.69 91.6133 257.69 91C257.69 90.36 257.743 89.8267 257.85 89.4H259.05C258.943 88.9467 258.89 88.4133 258.89 87.8C258.89 87.16 258.943 86.6267 259.05 86.2H261.05C260.943 85.7467 260.89 85.2133 260.89 84.6C260.89 83.96 260.943 83.4267 261.05 83H269.05C269.157 83.4267 269.21 83.96 269.21 84.6C269.21 85.2133 269.157 85.7467 269.05 86.2H270.65C270.757 86.6267 270.81 87.16 270.81 87.8ZM267.45 89.4C267.343 88.9467 267.29 88.4133 267.29 87.8C267.29 87.16 267.343 86.6267 267.45 86.2H262.25C262.357 86.6267 262.41 87.16 262.41 87.8C262.41 88.4133 262.357 88.9467 262.25 89.4H267.45ZM302.841 87.8C302.841 88.4133 302.788 88.9467 302.681 89.4H300.681C300.788 89.8267 300.841 90.36 300.841 91C300.841 91.6133 300.788 92.1467 300.681 92.6H301.881C301.988 93.0267 302.041 93.56 302.041 94.2C302.041 94.8133 301.988 95.3467 301.881 95.8H302.681C302.788 96.2267 302.841 96.76 302.841 97.4C302.841 98.0133 302.788 98.5467 302.681 99H299.481C299.375 98.5467 299.321 98.0133 299.321 97.4C299.321 96.76 299.375 96.2267 299.481 95.8C299.375 95.3467 299.321 94.8133 299.321 94.2C299.321 93.56 299.375 93.0267 299.481 92.6H298.281C298.388 93.0267 298.441 93.56 298.441 94.2C298.441 94.8133 298.388 95.3467 298.281 95.8H297.081C297.188 96.2267 297.241 96.76 297.241 97.4C297.241 98.0133 297.188 98.5467 297.081 99H291.481C291.375 98.5467 291.321 98.0133 291.321 97.4C291.321 96.76 291.375 96.2267 291.481 95.8H289.881C289.775 95.3467 289.721 94.8133 289.721 94.2C289.721 93.56 289.775 93.0267 289.881 92.6C289.775 92.1467 289.721 91.6133 289.721 91C289.721 90.36 289.775 89.8267 289.881 89.4H291.481C291.375 88.9467 291.321 88.4133 291.321 87.8C291.321 87.16 291.375 86.6267 291.481 86.2H293.081C292.975 85.7467 292.921 85.2133 292.921 84.6C292.921 83.96 292.975 83.4267 293.081 83H291.481C291.375 82.5467 291.321 82.0133 291.321 81.4C291.321 80.76 291.375 80.2267 291.481 79.8H293.081C292.975 79.3467 292.921 78.8133 292.921 78.2C292.921 77.56 292.975 77.0267 293.081 76.6H297.881C297.988 77.0267 298.041 77.56 298.041 78.2C298.041 78.8133 297.988 79.3467 297.881 79.8H299.481C299.588 80.2267 299.641 80.76 299.641 81.4C299.641 82.0133 299.588 82.5467 299.481 83H297.081C296.975 82.5467 296.921 82.0133 296.921 81.4C296.921 80.76 296.975 80.2267 297.081 79.8H293.881C293.988 80.2267 294.041 80.76 294.041 81.4C294.041 82.0133 293.988 82.5467 293.881 83H297.081C297.188 83.4267 297.241 83.96 297.241 84.6C297.241 85.2133 297.188 85.7467 297.081 86.2H298.281C298.388 86.6267 298.441 87.16 298.441 87.8C298.441 88.4133 298.388 88.9467 298.281 89.4H300.281C300.175 88.9467 300.121 88.4133 300.121 87.8C300.121 87.16 300.175 86.6267 300.281 86.2C300.175 85.7467 300.121 85.2133 300.121 84.6C300.121 83.96 300.175 83.4267 300.281 83H302.681C302.788 83.4267 302.841 83.96 302.841 84.6C302.841 85.2133 302.788 85.7467 302.681 86.2C302.788 86.6267 302.841 87.16 302.841 87.8ZM297.081 92.6C296.975 92.1467 296.921 91.6133 296.921 91C296.921 90.36 296.975 89.8267 297.081 89.4H295.881C295.775 88.9467 295.721 88.4133 295.721 87.8C295.721 87.16 295.775 86.6267 295.881 86.2H294.681C294.788 86.6267 294.841 87.16 294.841 87.8C294.841 88.4133 294.788 88.9467 294.681 89.4H293.081C293.188 89.8267 293.241 90.36 293.241 91C293.241 91.6133 293.188 92.1467 293.081 92.6C293.188 93.0267 293.241 93.56 293.241 94.2C293.241 94.8133 293.188 95.3467 293.081 95.8H295.881C295.775 95.3467 295.721 94.8133 295.721 94.2C295.721 93.56 295.775 93.0267 295.881 92.6H297.081ZM332.313 95.8C332.419 96.2267 332.473 96.76 332.473 97.4C332.473 98.0133 332.419 98.5467 332.313 99H324.313C324.206 98.5467 324.153 98.0133 324.153 97.4C324.153 96.76 324.206 96.2267 324.313 95.8H326.713C326.606 95.3467 326.553 94.8133 326.553 94.2C326.553 93.56 326.606 93.0267 326.713 92.6C326.606 92.1467 326.553 91.6133 326.553 91C326.553 90.36 326.606 89.8267 326.713 89.4C326.606 88.9467 326.553 88.4133 326.553 87.8C326.553 87.16 326.606 86.6267 326.713 86.2C326.606 85.7467 326.553 85.2133 326.553 84.6C326.553 83.96 326.606 83.4267 326.713 83C326.606 82.5467 326.553 82.0133 326.553 81.4C326.553 80.76 326.606 80.2267 326.713 79.8H324.313C324.206 79.3467 324.153 78.8133 324.153 78.2C324.153 77.56 324.206 77.0267 324.313 76.6H332.313C332.419 77.0267 332.473 77.56 332.473 78.2C332.473 78.8133 332.419 79.3467 332.313 79.8H329.913C330.019 80.2267 330.073 80.76 330.073 81.4C330.073 82.0133 330.019 82.5467 329.913 83C330.019 83.4267 330.073 83.96 330.073 84.6C330.073 85.2133 330.019 85.7467 329.913 86.2C330.019 86.6267 330.073 87.16 330.073 87.8C330.073 88.4133 330.019 88.9467 329.913 89.4C330.019 89.8267 330.073 90.36 330.073 91C330.073 91.6133 330.019 92.1467 329.913 92.6C330.019 93.0267 330.073 93.56 330.073 94.2C330.073 94.8133 330.019 95.3467 329.913 95.8H332.313ZM340.888 84.6C340.888 85.2133 340.835 85.7467 340.728 86.2H342.328C342.435 86.6267 342.488 87.16 342.488 87.8C342.488 88.4133 342.435 88.9467 342.328 89.4H341.128C341.235 89.8267 341.288 90.36 341.288 91C341.288 91.6133 341.235 92.1467 341.128 92.6C341.235 93.0267 341.288 93.56 341.288 94.2C341.288 94.8133 341.235 95.3467 341.128 95.8C341.235 96.2267 341.288 96.76 341.288 97.4C341.288 98.0133 341.235 98.5467 341.128 99H337.928C337.821 98.5467 337.768 98.0133 337.768 97.4C337.768 96.76 337.821 96.2267 337.928 95.8C337.821 95.3467 337.768 94.8133 337.768 94.2C337.768 93.56 337.821 93.0267 337.928 92.6C337.821 92.1467 337.768 91.6133 337.768 91C337.768 90.36 337.821 89.8267 337.928 89.4C337.821 88.9467 337.768 88.4133 337.768 87.8C337.768 87.16 337.821 86.6267 337.928 86.2C337.821 85.7467 337.768 85.2133 337.768 84.6C337.768 83.96 337.821 83.4267 337.928 83H340.728C340.835 83.4267 340.888 83.96 340.888 84.6ZM350.728 89.4C350.835 89.8267 350.888 90.36 350.888 91C350.888 91.6133 350.835 92.1467 350.728 92.6C350.835 93.0267 350.888 93.56 350.888 94.2C350.888 94.8133 350.835 95.3467 350.728 95.8C350.835 96.2267 350.888 96.76 350.888 97.4C350.888 98.0133 350.835 98.5467 350.728 99H347.528C347.421 98.5467 347.368 98.0133 347.368 97.4C347.368 96.76 347.421 96.2267 347.528 95.8C347.421 95.3467 347.368 94.8133 347.368 94.2C347.368 93.56 347.421 93.0267 347.528 92.6C347.421 92.1467 347.368 91.6133 347.368 91C347.368 90.36 347.421 89.8267 347.528 89.4C347.421 88.9467 347.368 88.4133 347.368 87.8C347.368 87.16 347.421 86.6267 347.528 86.2H342.328C342.221 85.7467 342.168 85.2133 342.168 84.6C342.168 83.96 342.221 83.4267 342.328 83H348.728C348.835 83.4267 348.888 83.96 348.888 84.6C348.888 85.2133 348.835 85.7467 348.728 86.2H350.728C350.835 86.6267 350.888 87.16 350.888 87.8C350.888 88.4133 350.835 88.9467 350.728 89.4ZM356.904 84.6C356.904 85.2133 356.85 85.7467 356.744 86.2H358.344C358.45 86.6267 358.504 87.16 358.504 87.8C358.504 88.4133 358.45 88.9467 358.344 89.4H357.144C357.25 89.8267 357.304 90.36 357.304 91C357.304 91.6133 357.25 92.1467 357.144 92.6C357.25 93.0267 357.304 93.56 357.304 94.2C357.304 94.8133 357.25 95.3467 357.144 95.8C357.25 96.2267 357.304 96.76 357.304 97.4C357.304 98.0133 357.25 98.5467 357.144 99H353.944C353.837 98.5467 353.784 98.0133 353.784 97.4C353.784 96.76 353.837 96.2267 353.944 95.8C353.837 95.3467 353.784 94.8133 353.784 94.2C353.784 93.56 353.837 93.0267 353.944 92.6C353.837 92.1467 353.784 91.6133 353.784 91C353.784 90.36 353.837 89.8267 353.944 89.4C353.837 88.9467 353.784 88.4133 353.784 87.8C353.784 87.16 353.837 86.6267 353.944 86.2C353.837 85.7467 353.784 85.2133 353.784 84.6C353.784 83.96 353.837 83.4267 353.944 83H356.744C356.85 83.4267 356.904 83.96 356.904 84.6ZM366.744 89.4C366.85 89.8267 366.904 90.36 366.904 91C366.904 91.6133 366.85 92.1467 366.744 92.6C366.85 93.0267 366.904 93.56 366.904 94.2C366.904 94.8133 366.85 95.3467 366.744 95.8C366.85 96.2267 366.904 96.76 366.904 97.4C366.904 98.0133 366.85 98.5467 366.744 99H363.544C363.437 98.5467 363.384 98.0133 363.384 97.4C363.384 96.76 363.437 96.2267 363.544 95.8C363.437 95.3467 363.384 94.8133 363.384 94.2C363.384 93.56 363.437 93.0267 363.544 92.6C363.437 92.1467 363.384 91.6133 363.384 91C363.384 90.36 363.437 89.8267 363.544 89.4C363.437 88.9467 363.384 88.4133 363.384 87.8C363.384 87.16 363.437 86.6267 363.544 86.2H358.344C358.237 85.7467 358.184 85.2133 358.184 84.6C358.184 83.96 358.237 83.4267 358.344 83H364.744C364.85 83.4267 364.904 83.96 364.904 84.6C364.904 85.2133 364.85 85.7467 364.744 86.2H366.744C366.85 86.6267 366.904 87.16 366.904 87.8C366.904 88.4133 366.85 88.9467 366.744 89.4ZM382.919 91C382.919 91.6133 382.866 92.1467 382.759 92.6H381.559C381.666 93.0267 381.719 93.56 381.719 94.2C381.719 94.8133 381.666 95.3467 381.559 95.8H379.559C379.666 96.2267 379.719 96.76 379.719 97.4C379.719 98.0133 379.666 98.5467 379.559 99H373.159C373.053 98.5467 372.999 98.0133 372.999 97.4C372.999 96.76 373.053 96.2267 373.159 95.8H371.159C371.053 95.3467 370.999 94.8133 370.999 94.2C370.999 93.56 371.053 93.0267 371.159 92.6H369.959C369.853 92.1467 369.799 91.6133 369.799 91C369.799 90.36 369.853 89.8267 369.959 89.4H371.159C371.053 88.9467 370.999 88.4133 370.999 87.8C370.999 87.16 371.053 86.6267 371.159 86.2H373.159C373.053 85.7467 372.999 85.2133 372.999 84.6C372.999 83.96 373.053 83.4267 373.159 83H379.559C379.666 83.4267 379.719 83.96 379.719 84.6C379.719 85.2133 379.666 85.7467 379.559 86.2H381.559C381.666 86.6267 381.719 87.16 381.719 87.8C381.719 88.4133 381.666 88.9467 381.559 89.4H382.759C382.866 89.8267 382.919 90.36 382.919 91ZM379.559 92.6C379.453 92.1467 379.399 91.6133 379.399 91C379.399 90.36 379.453 89.8267 379.559 89.4H378.359C378.253 88.9467 378.199 88.4133 378.199 87.8C378.199 87.16 378.253 86.6267 378.359 86.2H374.359C374.466 86.6267 374.519 87.16 374.519 87.8C374.519 88.4133 374.466 88.9467 374.359 89.4H373.159C373.266 89.8267 373.319 90.36 373.319 91C373.319 91.6133 373.266 92.1467 373.159 92.6H374.359C374.466 93.0267 374.519 93.56 374.519 94.2C374.519 94.8133 374.466 95.3467 374.359 95.8H378.359C378.253 95.3467 378.199 94.8133 378.199 94.2C378.199 93.56 378.253 93.0267 378.359 92.6H379.559ZM398.935 84.6C398.935 85.2133 398.882 85.7467 398.775 86.2H397.575C397.682 86.6267 397.735 87.16 397.735 87.8C397.735 88.4133 397.682 88.9467 397.575 89.4H396.375C396.482 89.8267 396.535 90.36 396.535 91C396.535 91.6133 396.482 92.1467 396.375 92.6H395.575C395.682 93.0267 395.735 93.56 395.735 94.2C395.735 94.8133 395.682 95.3467 395.575 95.8H393.975C394.082 96.2267 394.135 96.76 394.135 97.4C394.135 98.0133 394.082 98.5467 393.975 99H390.775C390.668 98.5467 390.615 98.0133 390.615 97.4C390.615 96.76 390.668 96.2267 390.775 95.8H389.175C389.068 95.3467 389.015 94.8133 389.015 94.2C389.015 93.56 389.068 93.0267 389.175 92.6H388.375C388.268 92.1467 388.215 91.6133 388.215 91C388.215 90.36 388.268 89.8267 388.375 89.4H387.175C387.068 88.9467 387.015 88.4133 387.015 87.8C387.015 87.16 387.068 86.6267 387.175 86.2H385.975C385.868 85.7467 385.815 85.2133 385.815 84.6C385.815 83.96 385.868 83.4267 385.975 83H389.175C389.282 83.4267 389.335 83.96 389.335 84.6C389.335 85.2133 389.282 85.7467 389.175 86.2H390.375C390.482 86.6267 390.535 87.16 390.535 87.8C390.535 88.4133 390.482 88.9467 390.375 89.4H391.575C391.682 89.8267 391.735 90.36 391.735 91C391.735 91.6133 391.682 92.1467 391.575 92.6H393.175C393.068 92.1467 393.015 91.6133 393.015 91C393.015 90.36 393.068 89.8267 393.175 89.4H394.375C394.268 88.9467 394.215 88.4133 394.215 87.8C394.215 87.16 394.268 86.6267 394.375 86.2H395.575C395.468 85.7467 395.415 85.2133 395.415 84.6C395.415 83.96 395.468 83.4267 395.575 83H398.775C398.882 83.4267 398.935 83.96 398.935 84.6ZM414.791 95.8C414.897 96.2267 414.951 96.76 414.951 97.4C414.951 98.0133 414.897 98.5467 414.791 99H411.591C411.484 98.5467 411.431 98.0133 411.431 97.4C411.431 96.76 411.484 96.2267 411.591 95.8H409.991C409.884 95.3467 409.831 94.8133 409.831 94.2C409.831 93.56 409.884 93.0267 409.991 92.6H405.191C405.297 93.0267 405.351 93.56 405.351 94.2C405.351 94.8133 405.297 95.3467 405.191 95.8H409.991C410.097 96.2267 410.151 96.76 410.151 97.4C410.151 98.0133 410.097 98.5467 409.991 99H403.591C403.484 98.5467 403.431 98.0133 403.431 97.4C403.431 96.76 403.484 96.2267 403.591 95.8H401.991C401.884 95.3467 401.831 94.8133 401.831 94.2C401.831 93.56 401.884 93.0267 401.991 92.6H403.591C403.484 92.1467 403.431 91.6133 403.431 91C403.431 90.36 403.484 89.8267 403.591 89.4H409.991C409.884 88.9467 409.831 88.4133 409.831 87.8C409.831 87.16 409.884 86.6267 409.991 86.2H404.391C404.284 85.7467 404.231 85.2133 404.231 84.6C404.231 83.96 404.284 83.4267 404.391 83H411.591C411.697 83.4267 411.751 83.96 411.751 84.6C411.751 85.2133 411.697 85.7467 411.591 86.2H413.191C413.297 86.6267 413.351 87.16 413.351 87.8C413.351 88.4133 413.297 88.9467 413.191 89.4C413.297 89.8267 413.351 90.36 413.351 91C413.351 91.6133 413.297 92.1467 413.191 92.6C413.297 93.0267 413.351 93.56 413.351 94.2C413.351 94.8133 413.297 95.3467 413.191 95.8H414.791ZM429.206 95.8C429.313 96.2267 429.366 96.76 429.366 97.4C429.366 98.0133 429.313 98.5467 429.206 99H422.806C422.7 98.5467 422.646 98.0133 422.646 97.4C422.646 96.76 422.7 96.2267 422.806 95.8H421.206C421.1 95.3467 421.046 94.8133 421.046 94.2C421.046 93.56 421.1 93.0267 421.206 92.6C421.1 92.1467 421.046 91.6133 421.046 91C421.046 90.36 421.1 89.8267 421.206 89.4C421.1 88.9467 421.046 88.4133 421.046 87.8C421.046 87.16 421.1 86.6267 421.206 86.2H418.006C417.9 85.7467 417.846 85.2133 417.846 84.6C417.846 83.96 417.9 83.4267 418.006 83H421.206C421.1 82.5467 421.046 82.0133 421.046 81.4C421.046 80.76 421.1 80.2267 421.206 79.8C421.1 79.3467 421.046 78.8133 421.046 78.2C421.046 77.56 421.1 77.0267 421.206 76.6H424.406C424.513 77.0267 424.566 77.56 424.566 78.2C424.566 78.8133 424.513 79.3467 424.406 79.8C424.513 80.2267 424.566 80.76 424.566 81.4C424.566 82.0133 424.513 82.5467 424.406 83H429.206C429.313 83.4267 429.366 83.96 429.366 84.6C429.366 85.2133 429.313 85.7467 429.206 86.2H424.406C424.513 86.6267 424.566 87.16 424.566 87.8C424.566 88.4133 424.513 88.9467 424.406 89.4C424.513 89.8267 424.566 90.36 424.566 91C424.566 91.6133 424.513 92.1467 424.406 92.6C424.513 93.0267 424.566 93.56 424.566 94.2C424.566 94.8133 424.513 95.3467 424.406 95.8H429.206ZM446.982 87.8C446.982 88.4133 446.929 88.9467 446.822 89.4C446.929 89.8267 446.982 90.36 446.982 91C446.982 91.6133 446.929 92.1467 446.822 92.6H438.422C438.529 93.0267 438.582 93.56 438.582 94.2C438.582 94.8133 438.529 95.3467 438.422 95.8H445.222C445.329 96.2267 445.382 96.76 445.382 97.4C445.382 98.0133 445.329 98.5467 445.222 99H437.222C437.115 98.5467 437.062 98.0133 437.062 97.4C437.062 96.76 437.115 96.2267 437.222 95.8H435.222C435.115 95.3467 435.062 94.8133 435.062 94.2C435.062 93.56 435.115 93.0267 435.222 92.6H434.022C433.915 92.1467 433.862 91.6133 433.862 91C433.862 90.36 433.915 89.8267 434.022 89.4H435.222C435.115 88.9467 435.062 88.4133 435.062 87.8C435.062 87.16 435.115 86.6267 435.222 86.2H437.222C437.115 85.7467 437.062 85.2133 437.062 84.6C437.062 83.96 437.115 83.4267 437.222 83H445.222C445.329 83.4267 445.382 83.96 445.382 84.6C445.382 85.2133 445.329 85.7467 445.222 86.2H446.822C446.929 86.6267 446.982 87.16 446.982 87.8ZM443.622 89.4C443.515 88.9467 443.462 88.4133 443.462 87.8C443.462 87.16 443.515 86.6267 443.622 86.2H438.422C438.529 86.6267 438.582 87.16 438.582 87.8C438.582 88.4133 438.529 88.9467 438.422 89.4H443.622ZM458.438 95.8C458.544 96.2267 458.598 96.76 458.598 97.4C458.598 98.0133 458.544 98.5467 458.438 99C458.544 99.4267 458.598 99.96 458.598 100.6C458.598 101.213 458.544 101.747 458.438 102.2H456.838C456.944 102.627 456.998 103.16 456.998 103.8C456.998 104.413 456.944 104.947 456.838 105.4H454.438C454.331 104.947 454.278 104.413 454.278 103.8C454.278 103.16 454.331 102.627 454.438 102.2H456.038C455.931 101.747 455.878 101.213 455.878 100.6C455.878 99.96 455.931 99.4267 456.038 99H454.438C454.331 98.5467 454.278 98.0133 454.278 97.4C454.278 96.76 454.331 96.2267 454.438 95.8C454.331 95.3467 454.278 94.8133 454.278 94.2C454.278 93.56 454.331 93.0267 454.438 92.6H458.438C458.544 93.0267 458.598 93.56 458.598 94.2C458.598 94.8133 458.544 95.3467 458.438 95.8ZM494.869 92.6C494.975 93.0267 495.029 93.56 495.029 94.2C495.029 94.8133 494.975 95.3467 494.869 95.8H493.269C493.375 96.2267 493.429 96.76 493.429 97.4C493.429 98.0133 493.375 98.5467 493.269 99H485.269C485.162 98.5467 485.109 98.0133 485.109 97.4C485.109 96.76 485.162 96.2267 485.269 95.8H483.669C483.562 95.3467 483.509 94.8133 483.509 94.2C483.509 93.56 483.562 93.0267 483.669 92.6H482.069C481.962 92.1467 481.909 91.6133 481.909 91C481.909 90.36 481.962 89.8267 482.069 89.4C481.962 88.9467 481.909 88.4133 481.909 87.8C481.909 87.16 481.962 86.6267 482.069 86.2C481.962 85.7467 481.909 85.2133 481.909 84.6C481.909 83.96 481.962 83.4267 482.069 83H483.669C483.562 82.5467 483.509 82.0133 483.509 81.4C483.509 80.76 483.562 80.2267 483.669 79.8H485.269C485.162 79.3467 485.109 78.8133 485.109 78.2C485.109 77.56 485.162 77.0267 485.269 76.6H493.269C493.375 77.0267 493.429 77.56 493.429 78.2C493.429 78.8133 493.375 79.3467 493.269 79.8H494.869C494.975 80.2267 495.029 80.76 495.029 81.4C495.029 82.0133 494.975 82.5467 494.869 83H491.669C491.562 82.5467 491.509 82.0133 491.509 81.4C491.509 80.76 491.562 80.2267 491.669 79.8H486.869C486.975 80.2267 487.029 80.76 487.029 81.4C487.029 82.0133 486.975 82.5467 486.869 83H485.269C485.375 83.4267 485.429 83.96 485.429 84.6C485.429 85.2133 485.375 85.7467 485.269 86.2C485.375 86.6267 485.429 87.16 485.429 87.8C485.429 88.4133 485.375 88.9467 485.269 89.4C485.375 89.8267 485.429 90.36 485.429 91C485.429 91.6133 485.375 92.1467 485.269 92.6H486.869C486.975 93.0267 487.029 93.56 487.029 94.2C487.029 94.8133 486.975 95.3467 486.869 95.8H491.669C491.562 95.3467 491.509 94.8133 491.509 94.2C491.509 93.56 491.562 93.0267 491.669 92.6H494.869ZM511.044 91C511.044 91.6133 510.991 92.1467 510.884 92.6H509.684C509.791 93.0267 509.844 93.56 509.844 94.2C509.844 94.8133 509.791 95.3467 509.684 95.8H507.684C507.791 96.2267 507.844 96.76 507.844 97.4C507.844 98.0133 507.791 98.5467 507.684 99H501.284C501.178 98.5467 501.124 98.0133 501.124 97.4C501.124 96.76 501.178 96.2267 501.284 95.8H499.284C499.178 95.3467 499.124 94.8133 499.124 94.2C499.124 93.56 499.178 93.0267 499.284 92.6H498.084C497.978 92.1467 497.924 91.6133 497.924 91C497.924 90.36 497.978 89.8267 498.084 89.4H499.284C499.178 88.9467 499.124 88.4133 499.124 87.8C499.124 87.16 499.178 86.6267 499.284 86.2H501.284C501.178 85.7467 501.124 85.2133 501.124 84.6C501.124 83.96 501.178 83.4267 501.284 83H507.684C507.791 83.4267 507.844 83.96 507.844 84.6C507.844 85.2133 507.791 85.7467 507.684 86.2H509.684C509.791 86.6267 509.844 87.16 509.844 87.8C509.844 88.4133 509.791 88.9467 509.684 89.4H510.884C510.991 89.8267 511.044 90.36 511.044 91ZM507.684 92.6C507.578 92.1467 507.524 91.6133 507.524 91C507.524 90.36 507.578 89.8267 507.684 89.4H506.484C506.378 88.9467 506.324 88.4133 506.324 87.8C506.324 87.16 506.378 86.6267 506.484 86.2H502.484C502.591 86.6267 502.644 87.16 502.644 87.8C502.644 88.4133 502.591 88.9467 502.484 89.4H501.284C501.391 89.8267 501.444 90.36 501.444 91C501.444 91.6133 501.391 92.1467 501.284 92.6H502.484C502.591 93.0267 502.644 93.56 502.644 94.2C502.644 94.8133 502.591 95.3467 502.484 95.8H506.484C506.378 95.3467 506.324 94.8133 506.324 94.2C506.324 93.56 506.378 93.0267 506.484 92.6H507.684ZM525.3 95.8C525.407 96.2267 525.46 96.76 525.46 97.4C525.46 98.0133 525.407 98.5467 525.3 99H515.7C515.593 98.5467 515.54 98.0133 515.54 97.4C515.54 96.76 515.593 96.2267 515.7 95.8H518.9C518.793 95.3467 518.74 94.8133 518.74 94.2C518.74 93.56 518.793 93.0267 518.9 92.6C518.793 92.1467 518.74 91.6133 518.74 91C518.74 90.36 518.793 89.8267 518.9 89.4C518.793 88.9467 518.74 88.4133 518.74 87.8C518.74 87.16 518.793 86.6267 518.9 86.2C518.793 85.7467 518.74 85.2133 518.74 84.6C518.74 83.96 518.793 83.4267 518.9 83C518.793 82.5467 518.74 82.0133 518.74 81.4C518.74 80.76 518.793 80.2267 518.9 79.8H516.5C516.393 79.3467 516.34 78.8133 516.34 78.2C516.34 77.56 516.393 77.0267 516.5 76.6H522.1C522.207 77.0267 522.26 77.56 522.26 78.2C522.26 78.8133 522.207 79.3467 522.1 79.8C522.207 80.2267 522.26 80.76 522.26 81.4C522.26 82.0133 522.207 82.5467 522.1 83C522.207 83.4267 522.26 83.96 522.26 84.6C522.26 85.2133 522.207 85.7467 522.1 86.2C522.207 86.6267 522.26 87.16 522.26 87.8C522.26 88.4133 522.207 88.9467 522.1 89.4C522.207 89.8267 522.26 90.36 522.26 91C522.26 91.6133 522.207 92.1467 522.1 92.6C522.207 93.0267 522.26 93.56 522.26 94.2C522.26 94.8133 522.207 95.3467 522.1 95.8H525.3ZM541.316 95.8C541.422 96.2267 541.476 96.76 541.476 97.4C541.476 98.0133 541.422 98.5467 541.316 99H531.716C531.609 98.5467 531.556 98.0133 531.556 97.4C531.556 96.76 531.609 96.2267 531.716 95.8H534.916C534.809 95.3467 534.756 94.8133 534.756 94.2C534.756 93.56 534.809 93.0267 534.916 92.6C534.809 92.1467 534.756 91.6133 534.756 91C534.756 90.36 534.809 89.8267 534.916 89.4C534.809 88.9467 534.756 88.4133 534.756 87.8C534.756 87.16 534.809 86.6267 534.916 86.2C534.809 85.7467 534.756 85.2133 534.756 84.6C534.756 83.96 534.809 83.4267 534.916 83C534.809 82.5467 534.756 82.0133 534.756 81.4C534.756 80.76 534.809 80.2267 534.916 79.8H532.516C532.409 79.3467 532.356 78.8133 532.356 78.2C532.356 77.56 532.409 77.0267 532.516 76.6H538.116C538.222 77.0267 538.276 77.56 538.276 78.2C538.276 78.8133 538.222 79.3467 538.116 79.8C538.222 80.2267 538.276 80.76 538.276 81.4C538.276 82.0133 538.222 82.5467 538.116 83C538.222 83.4267 538.276 83.96 538.276 84.6C538.276 85.2133 538.222 85.7467 538.116 86.2C538.222 86.6267 538.276 87.16 538.276 87.8C538.276 88.4133 538.222 88.9467 538.116 89.4C538.222 89.8267 538.276 90.36 538.276 91C538.276 91.6133 538.222 92.1467 538.116 92.6C538.222 93.0267 538.276 93.56 538.276 94.2C538.276 94.8133 538.222 95.3467 538.116 95.8H541.316ZM558.931 95.8C559.038 96.2267 559.091 96.76 559.091 97.4C559.091 98.0133 559.038 98.5467 558.931 99H555.731C555.625 98.5467 555.571 98.0133 555.571 97.4C555.571 96.76 555.625 96.2267 555.731 95.8H554.131C554.025 95.3467 553.971 94.8133 553.971 94.2C553.971 93.56 554.025 93.0267 554.131 92.6H549.331C549.438 93.0267 549.491 93.56 549.491 94.2C549.491 94.8133 549.438 95.3467 549.331 95.8H554.131C554.238 96.2267 554.291 96.76 554.291 97.4C554.291 98.0133 554.238 98.5467 554.131 99H547.731C547.625 98.5467 547.571 98.0133 547.571 97.4C547.571 96.76 547.625 96.2267 547.731 95.8H546.131C546.025 95.3467 545.971 94.8133 545.971 94.2C545.971 93.56 546.025 93.0267 546.131 92.6H547.731C547.625 92.1467 547.571 91.6133 547.571 91C547.571 90.36 547.625 89.8267 547.731 89.4H554.131C554.025 88.9467 553.971 88.4133 553.971 87.8C553.971 87.16 554.025 86.6267 554.131 86.2H548.531C548.425 85.7467 548.371 85.2133 548.371 84.6C548.371 83.96 548.425 83.4267 548.531 83H555.731C555.838 83.4267 555.891 83.96 555.891 84.6C555.891 85.2133 555.838 85.7467 555.731 86.2H557.331C557.438 86.6267 557.491 87.16 557.491 87.8C557.491 88.4133 557.438 88.9467 557.331 89.4C557.438 89.8267 557.491 90.36 557.491 91C557.491 91.6133 557.438 92.1467 557.331 92.6C557.438 93.0267 557.491 93.56 557.491 94.2C557.491 94.8133 557.438 95.3467 557.331 95.8H558.931ZM565.347 92.6C565.454 93.0267 565.507 93.56 565.507 94.2C565.507 94.8133 565.454 95.3467 565.347 95.8H563.747C563.854 96.2267 563.907 96.76 563.907 97.4C563.907 98.0133 563.854 98.5467 563.747 99H562.147C562.04 98.5467 561.987 98.0133 561.987 97.4C561.987 96.76 562.04 96.2267 562.147 95.8C562.04 95.3467 561.987 94.8133 561.987 94.2C561.987 93.56 562.04 93.0267 562.147 92.6C562.04 92.1467 561.987 91.6133 561.987 91C561.987 90.36 562.04 89.8267 562.147 89.4C562.04 88.9467 561.987 88.4133 561.987 87.8C561.987 87.16 562.04 86.6267 562.147 86.2C562.04 85.7467 561.987 85.2133 561.987 84.6C561.987 83.96 562.04 83.4267 562.147 83C562.04 82.5467 561.987 82.0133 561.987 81.4C561.987 80.76 562.04 80.2267 562.147 79.8C562.04 79.3467 561.987 78.8133 561.987 78.2C561.987 77.56 562.04 77.0267 562.147 76.6H565.347C565.454 77.0267 565.507 77.56 565.507 78.2C565.507 78.8133 565.454 79.3467 565.347 79.8C565.454 80.2267 565.507 80.76 565.507 81.4C565.507 82.0133 565.454 82.5467 565.347 83C565.454 83.4267 565.507 83.96 565.507 84.6C565.507 85.2133 565.454 85.7467 565.347 86.2H566.947C567.054 86.6267 567.107 87.16 567.107 87.8C567.107 88.4133 567.054 88.9467 566.947 89.4H565.347C565.454 89.8267 565.507 90.36 565.507 91C565.507 91.6133 565.454 92.1467 565.347 92.6ZM575.107 91C575.107 91.6133 575.054 92.1467 574.947 92.6H573.347C573.454 93.0267 573.507 93.56 573.507 94.2C573.507 94.8133 573.454 95.3467 573.347 95.8H570.147C570.04 95.3467 569.987 94.8133 569.987 94.2C569.987 93.56 570.04 93.0267 570.147 92.6H571.747C571.64 92.1467 571.587 91.6133 571.587 91C571.587 90.36 571.64 89.8267 571.747 89.4H570.147C570.04 88.9467 569.987 88.4133 569.987 87.8C569.987 87.16 570.04 86.6267 570.147 86.2H566.947C566.84 85.7467 566.787 85.2133 566.787 84.6C566.787 83.96 566.84 83.4267 566.947 83H571.747C571.854 83.4267 571.907 83.96 571.907 84.6C571.907 85.2133 571.854 85.7467 571.747 86.2H573.347C573.454 86.6267 573.507 87.16 573.507 87.8C573.507 88.4133 573.454 88.9467 573.347 89.4H574.947C575.054 89.8267 575.107 90.36 575.107 91ZM565.187 97.4C565.187 96.76 565.24 96.2267 565.347 95.8H570.147C570.254 96.2267 570.307 96.76 570.307 97.4C570.307 98.0133 570.254 98.5467 570.147 99H565.347C565.24 98.5467 565.187 98.0133 565.187 97.4ZM591.123 91C591.123 91.6133 591.069 92.1467 590.963 92.6H589.763C589.869 93.0267 589.923 93.56 589.923 94.2C589.923 94.8133 589.869 95.3467 589.763 95.8H587.763C587.869 96.2267 587.923 96.76 587.923 97.4C587.923 98.0133 587.869 98.5467 587.763 99H581.363C581.256 98.5467 581.203 98.0133 581.203 97.4C581.203 96.76 581.256 96.2267 581.363 95.8H579.363C579.256 95.3467 579.202 94.8133 579.202 94.2C579.202 93.56 579.256 93.0267 579.363 92.6H578.163C578.056 92.1467 578.003 91.6133 578.003 91C578.003 90.36 578.056 89.8267 578.163 89.4H579.363C579.256 88.9467 579.202 88.4133 579.202 87.8C579.202 87.16 579.256 86.6267 579.363 86.2H581.363C581.256 85.7467 581.203 85.2133 581.203 84.6C581.203 83.96 581.256 83.4267 581.363 83H587.763C587.869 83.4267 587.923 83.96 587.923 84.6C587.923 85.2133 587.869 85.7467 587.763 86.2H589.763C589.869 86.6267 589.923 87.16 589.923 87.8C589.923 88.4133 589.869 88.9467 589.763 89.4H590.963C591.069 89.8267 591.123 90.36 591.123 91ZM587.763 92.6C587.656 92.1467 587.603 91.6133 587.603 91C587.603 90.36 587.656 89.8267 587.763 89.4H586.562C586.456 88.9467 586.403 88.4133 586.403 87.8C586.403 87.16 586.456 86.6267 586.562 86.2H582.563C582.669 86.6267 582.723 87.16 582.723 87.8C582.723 88.4133 582.669 88.9467 582.563 89.4H581.363C581.469 89.8267 581.523 90.36 581.523 91C581.523 91.6133 581.469 92.1467 581.363 92.6H582.563C582.669 93.0267 582.723 93.56 582.723 94.2C582.723 94.8133 582.669 95.3467 582.563 95.8H586.562C586.456 95.3467 586.403 94.8133 586.403 94.2C586.403 93.56 586.456 93.0267 586.562 92.6H587.763ZM606.978 86.2C607.085 86.6267 607.138 87.16 607.138 87.8C607.138 88.4133 607.085 88.9467 606.978 89.4H603.778C603.671 88.9467 603.618 88.4133 603.618 87.8C603.618 87.16 603.671 86.6267 603.778 86.2H600.978C601.085 86.6267 601.138 87.16 601.138 87.8C601.138 88.4133 601.085 88.9467 600.978 89.4H599.778C599.885 89.8267 599.938 90.36 599.938 91C599.938 91.6133 599.885 92.1467 599.778 92.6C599.885 93.0267 599.938 93.56 599.938 94.2C599.938 94.8133 599.885 95.3467 599.778 95.8H602.178C602.285 96.2267 602.338 96.76 602.338 97.4C602.338 98.0133 602.285 98.5467 602.178 99H594.178C594.071 98.5467 594.018 98.0133 594.018 97.4C594.018 96.76 594.071 96.2267 594.178 95.8H596.578C596.471 95.3467 596.418 94.8133 596.418 94.2C596.418 93.56 596.471 93.0267 596.578 92.6C596.471 92.1467 596.418 91.6133 596.418 91C596.418 90.36 596.471 89.8267 596.578 89.4C596.471 88.9467 596.418 88.4133 596.418 87.8C596.418 87.16 596.471 86.6267 596.578 86.2H594.178C594.071 85.7467 594.018 85.2133 594.018 84.6C594.018 83.96 594.071 83.4267 594.178 83H598.178C598.285 83.4267 598.338 83.96 598.338 84.6C598.338 85.2133 598.285 85.7467 598.178 86.2H599.778C599.671 85.7467 599.618 85.2133 599.618 84.6C599.618 83.96 599.671 83.4267 599.778 83H605.778C605.885 83.4267 605.938 83.96 605.938 84.6C605.938 85.2133 605.885 85.7467 605.778 86.2H606.978ZM622.994 95.8C623.1 96.2267 623.154 96.76 623.154 97.4C623.154 98.0133 623.1 98.5467 622.994 99H619.794C619.687 98.5467 619.634 98.0133 619.634 97.4C619.634 96.76 619.687 96.2267 619.794 95.8H618.194C618.087 95.3467 618.034 94.8133 618.034 94.2C618.034 93.56 618.087 93.0267 618.194 92.6H613.394C613.5 93.0267 613.554 93.56 613.554 94.2C613.554 94.8133 613.5 95.3467 613.394 95.8H618.194C618.3 96.2267 618.354 96.76 618.354 97.4C618.354 98.0133 618.3 98.5467 618.194 99H611.794C611.687 98.5467 611.634 98.0133 611.634 97.4C611.634 96.76 611.687 96.2267 611.794 95.8H610.194C610.087 95.3467 610.034 94.8133 610.034 94.2C610.034 93.56 610.087 93.0267 610.194 92.6H611.794C611.687 92.1467 611.634 91.6133 611.634 91C611.634 90.36 611.687 89.8267 611.794 89.4H618.194C618.087 88.9467 618.034 88.4133 618.034 87.8C618.034 87.16 618.087 86.6267 618.194 86.2H612.594C612.487 85.7467 612.434 85.2133 612.434 84.6C612.434 83.96 612.487 83.4267 612.594 83H619.794C619.9 83.4267 619.954 83.96 619.954 84.6C619.954 85.2133 619.9 85.7467 619.794 86.2H621.394C621.5 86.6267 621.554 87.16 621.554 87.8C621.554 88.4133 621.5 88.9467 621.394 89.4C621.5 89.8267 621.554 90.36 621.554 91C621.554 91.6133 621.5 92.1467 621.394 92.6C621.5 93.0267 621.554 93.56 621.554 94.2C621.554 94.8133 621.5 95.3467 621.394 95.8H622.994ZM637.409 95.8C637.516 96.2267 637.569 96.76 637.569 97.4C637.569 98.0133 637.516 98.5467 637.409 99H631.009C630.903 98.5467 630.849 98.0133 630.849 97.4C630.849 96.76 630.903 96.2267 631.009 95.8H629.409C629.303 95.3467 629.249 94.8133 629.249 94.2C629.249 93.56 629.303 93.0267 629.409 92.6C629.303 92.1467 629.249 91.6133 629.249 91C629.249 90.36 629.303 89.8267 629.409 89.4C629.303 88.9467 629.249 88.4133 629.249 87.8C629.249 87.16 629.303 86.6267 629.409 86.2H626.209C626.103 85.7467 626.049 85.2133 626.049 84.6C626.049 83.96 626.103 83.4267 626.209 83H629.409C629.303 82.5467 629.249 82.0133 629.249 81.4C629.249 80.76 629.303 80.2267 629.409 79.8C629.303 79.3467 629.249 78.8133 629.249 78.2C629.249 77.56 629.303 77.0267 629.409 76.6H632.609C632.716 77.0267 632.769 77.56 632.769 78.2C632.769 78.8133 632.716 79.3467 632.609 79.8C632.716 80.2267 632.769 80.76 632.769 81.4C632.769 82.0133 632.716 82.5467 632.609 83H637.409C637.516 83.4267 637.569 83.96 637.569 84.6C637.569 85.2133 637.516 85.7467 637.409 86.2H632.609C632.716 86.6267 632.769 87.16 632.769 87.8C632.769 88.4133 632.716 88.9467 632.609 89.4C632.716 89.8267 632.769 90.36 632.769 91C632.769 91.6133 632.716 92.1467 632.609 92.6C632.716 93.0267 632.769 93.56 632.769 94.2C632.769 94.8133 632.716 95.3467 632.609 95.8H637.409ZM655.185 87.8C655.185 88.4133 655.132 88.9467 655.025 89.4C655.132 89.8267 655.185 90.36 655.185 91C655.185 91.6133 655.132 92.1467 655.025 92.6H646.625C646.732 93.0267 646.785 93.56 646.785 94.2C646.785 94.8133 646.732 95.3467 646.625 95.8H653.425C653.532 96.2267 653.585 96.76 653.585 97.4C653.585 98.0133 653.532 98.5467 653.425 99H645.425C645.318 98.5467 645.265 98.0133 645.265 97.4C645.265 96.76 645.318 96.2267 645.425 95.8H643.425C643.318 95.3467 643.265 94.8133 643.265 94.2C643.265 93.56 643.318 93.0267 643.425 92.6H642.225C642.118 92.1467 642.065 91.6133 642.065 91C642.065 90.36 642.118 89.8267 642.225 89.4H643.425C643.318 88.9467 643.265 88.4133 643.265 87.8C643.265 87.16 643.318 86.6267 643.425 86.2H645.425C645.318 85.7467 645.265 85.2133 645.265 84.6C645.265 83.96 645.318 83.4267 645.425 83H653.425C653.532 83.4267 653.585 83.96 653.585 84.6C653.585 85.2133 653.532 85.7467 653.425 86.2H655.025C655.132 86.6267 655.185 87.16 655.185 87.8ZM651.825 89.4C651.718 88.9467 651.665 88.4133 651.665 87.8C651.665 87.16 651.718 86.6267 651.825 86.2H646.625C646.732 86.6267 646.785 87.16 646.785 87.8C646.785 88.4133 646.732 88.9467 646.625 89.4H651.825ZM666.641 95.8C666.747 96.2267 666.801 96.76 666.801 97.4C666.801 98.0133 666.747 98.5467 666.641 99C666.747 99.4267 666.801 99.96 666.801 100.6C666.801 101.213 666.747 101.747 666.641 102.2H665.041C665.147 102.627 665.201 103.16 665.201 103.8C665.201 104.413 665.147 104.947 665.041 105.4H662.641C662.534 104.947 662.481 104.413 662.481 103.8C662.481 103.16 662.534 102.627 662.641 102.2H664.241C664.134 101.747 664.081 101.213 664.081 100.6C664.081 99.96 664.134 99.4267 664.241 99H662.641C662.534 98.5467 662.481 98.0133 662.481 97.4C662.481 96.76 662.534 96.2267 662.641 95.8C662.534 95.3467 662.481 94.8133 662.481 94.2C662.481 93.56 662.534 93.0267 662.641 92.6H666.641C666.747 93.0267 666.801 93.56 666.801 94.2C666.801 94.8133 666.747 95.3467 666.641 95.8ZM703.072 86.2C703.179 86.6267 703.232 87.16 703.232 87.8C703.232 88.4133 703.179 88.9467 703.072 89.4C703.179 89.8267 703.232 90.36 703.232 91C703.232 91.6133 703.179 92.1467 703.072 92.6H701.472C701.579 93.0267 701.632 93.56 701.632 94.2C701.632 94.8133 701.579 95.3467 701.472 95.8H699.872C699.979 96.2267 700.032 96.76 700.032 97.4C700.032 98.0133 699.979 98.5467 699.872 99H690.272C690.165 98.5467 690.112 98.0133 690.112 97.4C690.112 96.76 690.165 96.2267 690.272 95.8C690.165 95.3467 690.112 94.8133 690.112 94.2C690.112 93.56 690.165 93.0267 690.272 92.6C690.165 92.1467 690.112 91.6133 690.112 91C690.112 90.36 690.165 89.8267 690.272 89.4C690.165 88.9467 690.112 88.4133 690.112 87.8C690.112 87.16 690.165 86.6267 690.272 86.2C690.165 85.7467 690.112 85.2133 690.112 84.6C690.112 83.96 690.165 83.4267 690.272 83C690.165 82.5467 690.112 82.0133 690.112 81.4C690.112 80.76 690.165 80.2267 690.272 79.8C690.165 79.3467 690.112 78.8133 690.112 78.2C690.112 77.56 690.165 77.0267 690.272 76.6H699.872C699.979 77.0267 700.032 77.56 700.032 78.2C700.032 78.8133 699.979 79.3467 699.872 79.8H701.472C701.579 80.2267 701.632 80.76 701.632 81.4C701.632 82.0133 701.579 82.5467 701.472 83H703.072C703.179 83.4267 703.232 83.96 703.232 84.6C703.232 85.2133 703.179 85.7467 703.072 86.2ZM699.872 92.6C699.765 92.1467 699.712 91.6133 699.712 91C699.712 90.36 699.765 89.8267 699.872 89.4C699.765 88.9467 699.712 88.4133 699.712 87.8C699.712 87.16 699.765 86.6267 699.872 86.2C699.765 85.7467 699.712 85.2133 699.712 84.6C699.712 83.96 699.765 83.4267 699.872 83H698.272C698.165 82.5467 698.112 82.0133 698.112 81.4C698.112 80.76 698.165 80.2267 698.272 79.8H693.472C693.579 80.2267 693.632 80.76 693.632 81.4C693.632 82.0133 693.579 82.5467 693.472 83C693.579 83.4267 693.632 83.96 693.632 84.6C693.632 85.2133 693.579 85.7467 693.472 86.2C693.579 86.6267 693.632 87.16 693.632 87.8C693.632 88.4133 693.579 88.9467 693.472 89.4C693.579 89.8267 693.632 90.36 693.632 91C693.632 91.6133 693.579 92.1467 693.472 92.6C693.579 93.0267 693.632 93.56 693.632 94.2C693.632 94.8133 693.579 95.3467 693.472 95.8H698.272C698.165 95.3467 698.112 94.8133 698.112 94.2C698.112 93.56 698.165 93.0267 698.272 92.6H699.872ZM719.248 91C719.248 91.6133 719.194 92.1467 719.088 92.6H717.888C717.994 93.0267 718.048 93.56 718.048 94.2C718.048 94.8133 717.994 95.3467 717.888 95.8H715.888C715.994 96.2267 716.048 96.76 716.048 97.4C716.048 98.0133 715.994 98.5467 715.888 99H709.488C709.381 98.5467 709.328 98.0133 709.328 97.4C709.328 96.76 709.381 96.2267 709.488 95.8H707.488C707.381 95.3467 707.327 94.8133 707.327 94.2C707.327 93.56 707.381 93.0267 707.488 92.6H706.288C706.181 92.1467 706.128 91.6133 706.128 91C706.128 90.36 706.181 89.8267 706.288 89.4H707.488C707.381 88.9467 707.327 88.4133 707.327 87.8C707.327 87.16 707.381 86.6267 707.488 86.2H709.488C709.381 85.7467 709.328 85.2133 709.328 84.6C709.328 83.96 709.381 83.4267 709.488 83H715.888C715.994 83.4267 716.048 83.96 716.048 84.6C716.048 85.2133 715.994 85.7467 715.888 86.2H717.888C717.994 86.6267 718.048 87.16 718.048 87.8C718.048 88.4133 717.994 88.9467 717.888 89.4H719.088C719.194 89.8267 719.248 90.36 719.248 91ZM715.888 92.6C715.781 92.1467 715.728 91.6133 715.728 91C715.728 90.36 715.781 89.8267 715.888 89.4H714.688C714.581 88.9467 714.528 88.4133 714.528 87.8C714.528 87.16 714.581 86.6267 714.688 86.2H710.688C710.794 86.6267 710.848 87.16 710.848 87.8C710.848 88.4133 710.794 88.9467 710.688 89.4H709.488C709.594 89.8267 709.648 90.36 709.648 91C709.648 91.6133 709.594 92.1467 709.488 92.6H710.688C710.794 93.0267 710.848 93.56 710.848 94.2C710.848 94.8133 710.794 95.3467 710.688 95.8H714.688C714.581 95.3467 714.528 94.8133 714.528 94.2C714.528 93.56 714.581 93.0267 714.688 92.6H715.888ZM724.463 84.6C724.463 85.2133 724.41 85.7467 724.303 86.2H725.503C725.61 86.6267 725.663 87.16 725.663 87.8C725.663 88.4133 725.61 88.9467 725.503 89.4C725.61 89.8267 725.663 90.36 725.663 91C725.663 91.6133 725.61 92.1467 725.503 92.6C725.61 93.0267 725.663 93.56 725.663 94.2C725.663 94.8133 725.61 95.3467 725.503 95.8C725.61 96.2267 725.663 96.76 725.663 97.4C725.663 98.0133 725.61 98.5467 725.503 99H722.303C722.196 98.5467 722.143 98.0133 722.143 97.4C722.143 96.76 722.196 96.2267 722.303 95.8C722.196 95.3467 722.143 94.8133 722.143 94.2C722.143 93.56 722.196 93.0267 722.303 92.6C722.196 92.1467 722.143 91.6133 722.143 91C722.143 90.36 722.196 89.8267 722.303 89.4C722.196 88.9467 722.143 88.4133 722.143 87.8C722.143 87.16 722.196 86.6267 722.303 86.2C722.196 85.7467 722.143 85.2133 722.143 84.6C722.143 83.96 722.196 83.4267 722.303 83H724.303C724.41 83.4267 724.463 83.96 724.463 84.6ZM728.863 84.6C728.863 85.2133 728.81 85.7467 728.703 86.2H729.903C730.01 86.6267 730.063 87.16 730.063 87.8C730.063 88.4133 730.01 88.9467 729.903 89.4C730.01 89.8267 730.063 90.36 730.063 91C730.063 91.6133 730.01 92.1467 729.903 92.6C730.01 93.0267 730.063 93.56 730.063 94.2C730.063 94.8133 730.01 95.3467 729.903 95.8C730.01 96.2267 730.063 96.76 730.063 97.4C730.063 98.0133 730.01 98.5467 729.903 99H727.503C727.396 98.5467 727.343 98.0133 727.343 97.4C727.343 96.76 727.396 96.2267 727.503 95.8C727.396 95.3467 727.343 94.8133 727.343 94.2C727.343 93.56 727.396 93.0267 727.503 92.6C727.396 92.1467 727.343 91.6133 727.343 91C727.343 90.36 727.396 89.8267 727.503 89.4C727.396 88.9467 727.343 88.4133 727.343 87.8C727.343 87.16 727.396 86.6267 727.503 86.2H725.503C725.396 85.7467 725.343 85.2133 725.343 84.6C725.343 83.96 725.396 83.4267 725.503 83H728.703C728.81 83.4267 728.863 83.96 728.863 84.6ZM735.103 89.4C735.21 89.8267 735.263 90.36 735.263 91C735.263 91.6133 735.21 92.1467 735.103 92.6C735.21 93.0267 735.263 93.56 735.263 94.2C735.263 94.8133 735.21 95.3467 735.103 95.8C735.21 96.2267 735.263 96.76 735.263 97.4C735.263 98.0133 735.21 98.5467 735.103 99H731.903C731.796 98.5467 731.743 98.0133 731.743 97.4C731.743 96.76 731.796 96.2267 731.903 95.8C731.796 95.3467 731.743 94.8133 731.743 94.2C731.743 93.56 731.796 93.0267 731.903 92.6C731.796 92.1467 731.743 91.6133 731.743 91C731.743 90.36 731.796 89.8267 731.903 89.4C731.796 88.9467 731.743 88.4133 731.743 87.8C731.743 87.16 731.796 86.6267 731.903 86.2H729.903C729.796 85.7467 729.743 85.2133 729.743 84.6C729.743 83.96 729.796 83.4267 729.903 83H733.503C733.61 83.4267 733.663 83.96 733.663 84.6C733.663 85.2133 733.61 85.7467 733.503 86.2H735.103C735.21 86.6267 735.263 87.16 735.263 87.8C735.263 88.4133 735.21 88.9467 735.103 89.4ZM743.119 79.8C743.012 79.3467 742.959 78.8133 742.959 78.2C742.959 77.56 743.012 77.0267 743.119 76.6H746.319C746.425 77.0267 746.479 77.56 746.479 78.2C746.479 78.8133 746.425 79.3467 746.319 79.8H743.119ZM749.519 95.8C749.625 96.2267 749.679 96.76 749.679 97.4C749.679 98.0133 749.625 98.5467 749.519 99H739.919C739.812 98.5467 739.759 98.0133 739.759 97.4C739.759 96.76 739.812 96.2267 739.919 95.8H743.119C743.012 95.3467 742.959 94.8133 742.959 94.2C742.959 93.56 743.012 93.0267 743.119 92.6C743.012 92.1467 742.959 91.6133 742.959 91C742.959 90.36 743.012 89.8267 743.119 89.4C743.012 88.9467 742.959 88.4133 742.959 87.8C742.959 87.16 743.012 86.6267 743.119 86.2H740.719C740.612 85.7467 740.559 85.2133 740.559 84.6C740.559 83.96 740.612 83.4267 740.719 83H746.319C746.425 83.4267 746.479 83.96 746.479 84.6C746.479 85.2133 746.425 85.7467 746.319 86.2C746.425 86.6267 746.479 87.16 746.479 87.8C746.479 88.4133 746.425 88.9467 746.319 89.4C746.425 89.8267 746.479 90.36 746.479 91C746.479 91.6133 746.425 92.1467 746.319 92.6C746.425 93.0267 746.479 93.56 746.479 94.2C746.479 94.8133 746.425 95.3467 746.319 95.8H749.519ZM757.294 84.6C757.294 85.2133 757.241 85.7467 757.134 86.2H758.734C758.841 86.6267 758.894 87.16 758.894 87.8C758.894 88.4133 758.841 88.9467 758.734 89.4H757.534C757.641 89.8267 757.694 90.36 757.694 91C757.694 91.6133 757.641 92.1467 757.534 92.6C757.641 93.0267 757.694 93.56 757.694 94.2C757.694 94.8133 757.641 95.3467 757.534 95.8C757.641 96.2267 757.694 96.76 757.694 97.4C757.694 98.0133 757.641 98.5467 757.534 99H754.334C754.228 98.5467 754.174 98.0133 754.174 97.4C754.174 96.76 754.228 96.2267 754.334 95.8C754.228 95.3467 754.174 94.8133 754.174 94.2C754.174 93.56 754.228 93.0267 754.334 92.6C754.228 92.1467 754.174 91.6133 754.174 91C754.174 90.36 754.228 89.8267 754.334 89.4C754.228 88.9467 754.174 88.4133 754.174 87.8C754.174 87.16 754.228 86.6267 754.334 86.2C754.228 85.7467 754.174 85.2133 754.174 84.6C754.174 83.96 754.228 83.4267 754.334 83H757.134C757.241 83.4267 757.294 83.96 757.294 84.6ZM767.134 89.4C767.241 89.8267 767.294 90.36 767.294 91C767.294 91.6133 767.241 92.1467 767.134 92.6C767.241 93.0267 767.294 93.56 767.294 94.2C767.294 94.8133 767.241 95.3467 767.134 95.8C767.241 96.2267 767.294 96.76 767.294 97.4C767.294 98.0133 767.241 98.5467 767.134 99H763.934C763.828 98.5467 763.774 98.0133 763.774 97.4C763.774 96.76 763.828 96.2267 763.934 95.8C763.828 95.3467 763.774 94.8133 763.774 94.2C763.774 93.56 763.828 93.0267 763.934 92.6C763.828 92.1467 763.774 91.6133 763.774 91C763.774 90.36 763.828 89.8267 763.934 89.4C763.828 88.9467 763.774 88.4133 763.774 87.8C763.774 87.16 763.828 86.6267 763.934 86.2H758.734C758.628 85.7467 758.574 85.2133 758.574 84.6C758.574 83.96 758.628 83.4267 758.734 83H765.134C765.241 83.4267 765.294 83.96 765.294 84.6C765.294 85.2133 765.241 85.7467 765.134 86.2H767.134C767.241 86.6267 767.294 87.16 767.294 87.8C767.294 88.4133 767.241 88.9467 767.134 89.4ZM783.15 95.8C783.257 96.2267 783.31 96.76 783.31 97.4C783.31 98.0133 783.257 98.5467 783.15 99H779.95C779.843 98.5467 779.79 98.0133 779.79 97.4C779.79 96.76 779.843 96.2267 779.95 95.8H778.35C778.243 95.3467 778.19 94.8133 778.19 94.2C778.19 93.56 778.243 93.0267 778.35 92.6H773.55C773.657 93.0267 773.71 93.56 773.71 94.2C773.71 94.8133 773.657 95.3467 773.55 95.8H778.35C778.457 96.2267 778.51 96.76 778.51 97.4C778.51 98.0133 778.457 98.5467 778.35 99H771.95C771.843 98.5467 771.79 98.0133 771.79 97.4C771.79 96.76 771.843 96.2267 771.95 95.8H770.35C770.243 95.3467 770.19 94.8133 770.19 94.2C770.19 93.56 770.243 93.0267 770.35 92.6H771.95C771.843 92.1467 771.79 91.6133 771.79 91C771.79 90.36 771.843 89.8267 771.95 89.4H778.35C778.243 88.9467 778.19 88.4133 778.19 87.8C778.19 87.16 778.243 86.6267 778.35 86.2H772.75C772.643 85.7467 772.59 85.2133 772.59 84.6C772.59 83.96 772.643 83.4267 772.75 83H779.95C780.057 83.4267 780.11 83.96 780.11 84.6C780.11 85.2133 780.057 85.7467 779.95 86.2H781.55C781.657 86.6267 781.71 87.16 781.71 87.8C781.71 88.4133 781.657 88.9467 781.55 89.4C781.657 89.8267 781.71 90.36 781.71 91C781.71 91.6133 781.657 92.1467 781.55 92.6C781.657 93.0267 781.71 93.56 781.71 94.2C781.71 94.8133 781.657 95.3467 781.55 95.8H783.15ZM797.566 95.8C797.672 96.2267 797.726 96.76 797.726 97.4C797.726 98.0133 797.672 98.5467 797.566 99H791.166C791.059 98.5467 791.006 98.0133 791.006 97.4C791.006 96.76 791.059 96.2267 791.166 95.8H789.566C789.459 95.3467 789.406 94.8133 789.406 94.2C789.406 93.56 789.459 93.0267 789.566 92.6C789.459 92.1467 789.406 91.6133 789.406 91C789.406 90.36 789.459 89.8267 789.566 89.4C789.459 88.9467 789.406 88.4133 789.406 87.8C789.406 87.16 789.459 86.6267 789.566 86.2H786.366C786.259 85.7467 786.206 85.2133 786.206 84.6C786.206 83.96 786.259 83.4267 786.366 83H789.566C789.459 82.5467 789.406 82.0133 789.406 81.4C789.406 80.76 789.459 80.2267 789.566 79.8C789.459 79.3467 789.406 78.8133 789.406 78.2C789.406 77.56 789.459 77.0267 789.566 76.6H792.766C792.872 77.0267 792.926 77.56 792.926 78.2C792.926 78.8133 792.872 79.3467 792.766 79.8C792.872 80.2267 792.926 80.76 792.926 81.4C792.926 82.0133 792.872 82.5467 792.766 83H797.566C797.672 83.4267 797.726 83.96 797.726 84.6C797.726 85.2133 797.672 85.7467 797.566 86.2H792.766C792.872 86.6267 792.926 87.16 792.926 87.8C792.926 88.4133 792.872 88.9467 792.766 89.4C792.872 89.8267 792.926 90.36 792.926 91C792.926 91.6133 792.872 92.1467 792.766 92.6C792.872 93.0267 792.926 93.56 792.926 94.2C792.926 94.8133 792.872 95.3467 792.766 95.8H797.566ZM815.341 87.8C815.341 88.4133 815.288 88.9467 815.181 89.4C815.288 89.8267 815.341 90.36 815.341 91C815.341 91.6133 815.288 92.1467 815.181 92.6H806.781C806.888 93.0267 806.941 93.56 806.941 94.2C806.941 94.8133 806.888 95.3467 806.781 95.8H813.581C813.688 96.2267 813.741 96.76 813.741 97.4C813.741 98.0133 813.688 98.5467 813.581 99H805.581C805.475 98.5467 805.421 98.0133 805.421 97.4C805.421 96.76 805.475 96.2267 805.581 95.8H803.581C803.475 95.3467 803.421 94.8133 803.421 94.2C803.421 93.56 803.475 93.0267 803.581 92.6H802.381C802.275 92.1467 802.221 91.6133 802.221 91C802.221 90.36 802.275 89.8267 802.381 89.4H803.581C803.475 88.9467 803.421 88.4133 803.421 87.8C803.421 87.16 803.475 86.6267 803.581 86.2H805.581C805.475 85.7467 805.421 85.2133 805.421 84.6C805.421 83.96 805.475 83.4267 805.581 83H813.581C813.688 83.4267 813.741 83.96 813.741 84.6C813.741 85.2133 813.688 85.7467 813.581 86.2H815.181C815.288 86.6267 815.341 87.16 815.341 87.8ZM811.981 89.4C811.875 88.9467 811.821 88.4133 811.821 87.8C811.821 87.16 811.875 86.6267 811.981 86.2H806.781C806.888 86.6267 806.941 87.16 806.941 87.8C806.941 88.4133 806.888 88.9467 806.781 89.4H811.981Z" fill="url(#paint0_linear_126_69225)"/>
<defs>
<filter id="filter0_d_126_69225" x="161.612" y="0.23999" width="490.898" height="57.76" filterUnits="userSpaceOnUse" color-interpolation-filters="sRGB">
<feFlood flood-opacity="0" result="BackgroundImageFix"/>
<feColorMatrix in="SourceAlpha" type="matrix" values="0 0 0 0 0 0 0 0 0 0 0 0 0 0 0 0 0 0 127 0" result="hardAlpha"/>
<feOffset dx="2" dy="4"/>
<feComposite in2="hardAlpha" operator="out"/>
<feColorMatrix type="matrix" values="0 0 0 0 0.92549 0 0 0 0 0.32549 0 0 0 0 0.690196 0 0 0 1 0"/>
<feBlend mode="normal" in2="BackgroundImageFix" result="effect1_dropShadow_126_69225"/>
<feBlend mode="normal" in="SourceGraphic" in2="effect1_dropShadow_126_69225" result="shape"/>
</filter>
<linearGradient id="paint0_linear_126_69225" x1="0" y1="87" x2="817" y2="87" gradientUnits="userSpaceOnUse">
<stop stop-color="#4D2DB7"/>
<stop offset="0.47" stop-color="#9D44C0"/>
<stop offset="1" stop-color="#EC53B0"/>
</linearGradient>
</defs>
</svg>
